<svg width="254" height="66" viewBox="0 0 254 66" fill="none" xmlns="http://www.w3.org/2000/svg">
<g id="lorem2">
<path id="Vector" d="M75.8934 20.9007H82.0143V45.6498H75.8934V20.9007ZM84.4423 36.3052C84.4423 30.1842 88.1965 26.532 93.991 26.532C99.7856 26.532 103.54 30.1842 103.54 36.3052C103.54 42.4261 99.8672 46.0987 93.991 46.0987C88.1149 46.0987 84.4423 42.5281 84.4423 36.3052ZM97.3984 36.3052C97.3984 32.9386 96.0722 30.9595 93.991 30.9595C91.9099 30.9595 90.6041 32.9998 90.6041 36.3052C90.6041 39.6105 91.8895 41.61 93.991 41.61C96.0926 41.61 97.3984 39.7329 97.3984 36.3256V36.3052ZM105.845 46.8536H111.721C112.001 47.4749 112.474 47.9893 113.069 48.3202C113.665 48.6509 114.352 48.7807 115.027 48.6899C117.353 48.6899 118.577 47.4249 118.577 45.5886V42.1609H118.455C117.967 43.2114 117.175 44.0916 116.183 44.6882C115.19 45.2846 114.041 45.5698 112.884 45.507C108.416 45.507 105.458 42.0997 105.458 36.2439C105.458 30.3882 108.273 26.6952 112.966 26.6952C114.159 26.6485 115.337 26.9674 116.344 27.6091C117.35 28.251 118.137 29.185 118.597 30.2862V26.8789H124.718V45.4458C124.718 49.9141 120.78 52.6889 114.966 52.6889C109.559 52.6889 106.192 50.261 105.845 46.874V46.8536ZM118.597 36.2847C118.597 33.3059 117.23 31.4288 115.068 31.4288C112.905 31.4288 111.579 33.2855 111.579 36.2847C111.579 39.284 112.884 40.9775 115.068 40.9775C117.251 40.9775 118.597 39.3248 118.597 36.3052V36.2847ZM127.024 36.2847C127.024 30.1638 130.778 26.5116 136.573 26.5116C142.367 26.5116 146.142 30.1638 146.142 36.2847C146.142 42.4057 142.469 46.0783 136.573 46.0783C130.676 46.0783 127.024 42.5281 127.024 36.3052V36.2847ZM139.98 36.2847C139.98 32.9182 138.654 30.9391 136.573 30.9391C134.491 30.9391 133.288 32.9998 133.288 36.3256C133.288 39.6513 134.573 41.6304 136.654 41.6304C138.735 41.6304 139.98 39.7329 139.98 36.3256V36.2847ZM148.468 22.431C148.452 21.8129 148.619 21.2041 148.95 20.6816C149.28 20.1591 149.758 19.7464 150.324 19.496C150.889 19.2455 151.515 19.1685 152.125 19.2747C152.734 19.3809 153.297 19.6655 153.744 20.0925C154.192 20.5195 154.502 21.0697 154.636 21.6732C154.77 22.2767 154.722 22.9063 154.497 23.4825C154.273 24.0585 153.883 24.5551 153.376 24.9091C152.869 25.2631 152.269 25.4588 151.651 25.471C151.241 25.4992 150.83 25.4423 150.443 25.3039C150.056 25.1656 149.702 24.9489 149.404 24.6671C149.105 24.3856 148.867 24.0451 148.706 23.6672C148.545 23.2895 148.464 22.8825 148.468 22.4718V22.431ZM148.468 26.9197H154.589V45.6498H148.468V26.9197ZM176.808 36.2847C176.808 42.4057 174.094 45.8947 169.442 45.8947C168.249 45.9712 167.062 45.6796 166.04 45.0594C165.018 44.4389 164.212 43.5197 163.729 42.4261H163.607V51.6484H157.486V26.8789H163.607V30.225H163.729C164.189 29.1132 164.98 28.1702 165.995 27.524C167.01 26.8778 168.199 26.56 169.401 26.6136C174.094 26.6952 176.889 30.2046 176.889 36.3256L176.808 36.2847ZM170.687 36.2847C170.687 33.3059 169.32 31.4084 167.177 31.4084C165.035 31.4084 163.668 33.3263 163.648 36.2847C163.627 39.2432 165.035 41.1407 167.177 41.1407C169.32 41.1407 170.687 39.284 170.687 36.3256V36.2847ZM187.315 26.4912C192.396 26.4912 195.477 28.8988 195.62 32.755H190.049C190.049 31.4288 188.948 30.5922 187.254 30.5922C185.561 30.5922 184.806 31.2451 184.806 32.2041C184.806 33.1631 185.479 33.4691 186.846 33.7547L190.764 34.5505C194.497 35.3462 196.089 36.856 196.089 39.6921C196.089 43.5687 192.559 46.0579 187.356 46.0579C182.153 46.0579 178.746 43.5687 178.481 39.7533H184.377C184.561 41.1407 185.663 41.9568 187.458 41.9568C189.254 41.9568 190.07 41.3652 190.07 40.3858C190.07 39.4064 189.499 39.2024 188.03 38.8964L184.5 38.1414C180.848 37.3865 178.93 35.4482 178.93 32.5918C178.97 28.9192 182.255 26.532 187.315 26.532V26.4912ZM216.512 45.609H210.616V42.1201H210.493C210.169 43.2914 209.455 44.3167 208.467 45.0257C207.48 45.7345 206.28 46.0844 205.066 46.0171C204.136 46.0699 203.206 45.9226 202.338 45.5849C201.47 45.2473 200.684 44.7274 200.034 44.06C199.384 43.3928 198.885 42.5936 198.571 41.7169C198.256 40.8402 198.133 39.9061 198.211 38.978V26.8789H204.332V37.5701C204.332 39.7941 205.474 40.9775 207.372 40.9775C207.817 40.9783 208.257 40.8842 208.663 40.7012C209.067 40.5182 209.43 40.2505 209.724 39.9163C210.016 39.5819 210.236 39.1887 210.365 38.7631C210.493 38.3373 210.532 37.8888 210.473 37.4477V26.8789H216.594L216.512 45.609ZM219.471 26.8789H225.388V30.4902H225.51C225.835 29.3344 226.534 28.3187 227.497 27.6026C228.461 26.8864 229.636 26.5098 230.835 26.532C232.058 26.4343 233.27 26.7997 234.235 27.5558C235.198 28.312 235.842 29.4031 236.038 30.6126H236.161C236.53 29.3903 237.297 28.3261 238.34 27.5873C239.38 26.8485 240.639 26.4771 241.914 26.532C242.747 26.5041 243.575 26.6516 244.346 26.965C245.12 27.2781 245.816 27.7505 246.393 28.3507C246.97 28.9512 247.415 29.6663 247.699 30.4496C247.98 31.2329 248.097 32.0672 248.035 32.8978V45.6498H241.914V34.5301C241.914 32.4897 240.996 31.5512 239.282 31.5512C238.901 31.5479 238.521 31.6267 238.172 31.7822C237.824 31.9376 237.511 32.1662 237.258 32.4524C237.005 32.7387 236.816 33.0757 236.703 33.4411C236.591 33.8068 236.561 34.192 236.61 34.5709V45.6498H230.795V34.4485C230.795 32.5714 229.876 31.5512 228.203 31.5512C227.818 31.5514 227.434 31.6334 227.083 31.792C226.73 31.9507 226.414 32.1823 226.159 32.4714C225.902 32.7605 225.71 33.1008 225.594 33.4699C225.48 33.8388 225.443 34.2279 225.49 34.6117V45.6498H219.369L219.471 26.8789Z" fill="white"/>
<path id="Vector_2" d="M58.7743 22.023C57.736 19.6488 56.3618 17.4362 54.6936 15.4531C52.2279 12.4341 49.1507 9.97157 45.6646 8.22752C42.1785 6.48349 38.3625 5.49751 34.4679 5.33446C30.5734 5.17142 26.6884 5.83502 23.0686 7.2816C19.449 8.72817 16.1768 10.9249 13.4673 13.7273C10.7578 16.5296 8.67247 19.874 7.34861 23.5403C6.02475 27.2066 5.49232 31.1118 5.78642 34.9986C6.08053 38.8856 7.19444 42.6661 9.05489 46.0914C10.9153 49.5169 13.4801 52.5095 16.5804 54.8721C18.5698 56.4185 20.7679 57.6756 23.1094 58.6059C26.3923 59.9513 29.906 60.6442 33.4539 60.6463C40.7774 60.6301 47.7957 57.7108 52.9706 52.5284C58.1453 47.346 61.0541 40.3234 61.0594 32.9999C61.0648 29.2222 60.2868 25.4846 58.7743 22.023ZM33.4335 10.944C36.6196 10.9437 39.7673 11.64 42.6557 12.9843C41.9514 13.2887 41.2108 13.5012 40.4522 13.6168C37.9561 13.9781 35.6438 15.137 33.8603 16.9205C32.0769 18.7039 30.918 21.0163 30.5566 23.5124C30.3981 24.9123 29.7613 26.2146 28.754 27.1997C27.7467 28.1847 26.4305 28.7919 25.0274 28.9192C22.5312 29.2806 20.2189 30.4395 18.4354 32.2229C16.652 34.0064 15.4931 36.3187 15.1318 38.8148C15.0095 40.1459 14.4415 41.3968 13.52 42.365C11.9298 39.0052 11.2155 35.2975 11.4435 31.5874C11.6714 27.8773 12.8342 24.2851 14.8237 21.145C16.8131 18.0051 19.5646 15.4195 22.822 13.6287C26.0793 11.838 29.7368 10.9004 33.4539 10.9032L33.4335 10.944ZM16.56 47.2822C16.8049 47.0577 17.0497 46.8537 17.2945 46.6088C19.1097 44.8491 20.2749 42.526 20.5999 40.0186C20.7316 38.6091 21.3609 37.2927 22.3749 36.3052C23.3508 35.2895 24.6642 34.6654 26.0679 34.5505C28.564 34.1892 30.8763 33.0303 32.6598 31.2468C34.4432 29.4634 35.6021 27.1511 35.9635 24.655C36.0518 23.1808 36.6843 21.792 37.7386 20.758C38.7385 19.762 40.0643 19.1606 41.4724 19.0645C43.7655 18.749 45.9041 17.7295 47.5933 16.1468C49.5167 17.7425 51.1461 19.6621 52.4085 21.8189C52.3309 21.9236 52.242 22.0195 52.1432 22.1046C51.1694 23.1292 49.8577 23.767 48.4503 23.9001C45.9515 24.2551 43.6357 25.4119 41.851 27.1964C40.0666 28.9811 38.9097 31.2968 38.5547 33.7956C38.4108 35.2002 37.7859 36.5119 36.7857 37.5084C35.7854 38.5051 34.4714 39.1251 33.0662 39.2637C30.5627 39.6222 28.2419 40.7788 26.448 42.5615C24.6544 44.3443 23.4834 46.658 23.1094 49.1592C22.9997 50.1564 22.6571 51.1139 22.1097 51.9545C20.0163 50.7115 18.1415 49.1331 16.56 47.2822ZM33.4335 55.1578C31.3632 55.16 29.3026 54.8715 27.3125 54.3009C27.9934 53.0318 28.4359 51.6486 28.6183 50.2202C28.7613 48.8187 29.3834 47.5094 30.3795 46.5134C31.3756 45.5173 32.6849 44.8952 34.0864 44.7522C36.5862 44.3949 38.9032 43.2378 40.6907 41.454C42.478 39.6703 43.64 37.3556 44.0023 34.8566C44.1454 33.4551 44.7675 32.1458 45.7636 31.1497C46.7596 30.1536 48.0689 29.5315 49.4704 29.3885C51.3516 29.1439 53.1446 28.4434 54.6936 27.3482C55.5538 30.6084 55.6557 34.0223 54.9915 37.328C54.3274 40.6338 52.9147 43.7436 50.8621 46.4187C48.8096 49.0935 46.1716 51.263 43.1503 52.7602C40.1292 54.2574 36.8053 55.0427 33.4335 55.0558V55.1578Z" fill="white"/>
</g>
</svg>
