<svg width="251" height="48" viewBox="0 0 251 48" fill="none" xmlns="http://www.w3.org/2000/svg">
<g clip-path="url(#clip0_1_30)">
<g clip-path="url(#clip1_1_30)">
<path d="M27.0593 9.34592C26.518 4.70685 25.9464 -0.191301 25.9464 -5.87891H31.0534C31.0534 -0.255184 30.4846 4.63674 29.9439 9.28102C29.5035 13.0658 29.0822 16.6862 29.004 20.4042C31.5683 17.7294 33.8115 14.8932 36.1614 11.9223C39.0586 8.25926 42.1183 4.39159 46.1398 0.369974L49.7511 3.98127C45.7744 7.95786 41.9126 11.0145 38.2464 13.9164L38.243 13.919C35.2568 16.2831 32.4001 18.5444 29.7168 21.117C33.421 21.0388 37.0126 20.6197 40.7748 20.1806C45.4139 19.6392 50.3123 19.0676 55.9999 19.0676V24.1746C50.3764 24.1746 45.4844 23.6055 40.8404 23.0651L40.8369 23.0648C37.0529 22.6246 33.4337 22.2035 29.7168 22.1252C32.3898 24.6876 35.2245 26.9298 38.1935 29.2781L38.1982 29.282C41.8613 32.1796 45.7292 35.239 49.7511 39.261L46.1398 42.8723C42.1631 38.8958 39.1066 35.0342 36.2051 31.3683L36.1982 31.3588L36.1925 31.3513C33.8314 28.3697 31.5729 25.5176 29.004 22.838C29.0822 26.556 29.5035 30.1763 29.9439 33.9612C30.4846 38.6055 31.0534 43.4973 31.0534 49.1211H25.9464C25.9464 43.4335 26.518 38.5354 27.0593 33.8963L27.0604 33.8887C27.4989 30.1292 27.9176 26.5397 27.9958 22.838C25.4269 25.5176 23.1683 28.3697 20.8073 31.3513L20.8015 31.3588L20.7947 31.3683C17.8931 35.0342 14.8366 38.8958 10.8601 42.8723L7.24876 39.261C11.2706 35.239 15.1385 32.1796 18.8016 29.282L18.8063 29.2781C21.7753 26.9298 24.61 24.6876 27.283 22.1252C23.565 22.2037 19.9445 22.6248 16.1594 23.0651C11.5153 23.6055 6.62341 24.1746 0.999878 24.1746V19.0676C6.68748 19.0676 11.5859 19.6392 16.225 20.1806C19.9871 20.6197 23.5788 21.0388 27.283 21.117C24.5986 18.5434 21.7408 16.2814 18.7533 13.9164C15.0872 11.0145 11.2253 7.95786 7.24876 3.98127L10.8601 0.369974C14.8815 4.39159 17.9411 8.25926 20.8384 11.9223C23.1883 14.8931 25.4314 17.7293 27.9958 20.4039C27.9176 16.7023 27.4989 13.113 27.0604 9.35348L27.0593 9.34592Z" fill="white"/>
</g>
<path d="M78.4213 32.6074H85.8814V37.0037H72.7261V13.6238H78.4213V32.6074Z" fill="white"/>
<path d="M96.0582 37.2703C94.2376 37.2703 92.5945 36.8817 91.129 36.1046C89.6859 35.3275 88.5424 34.2174 87.6987 32.7741C86.8772 31.3309 86.4664 29.6435 86.4664 27.7117C86.4664 25.8024 86.8882 24.1259 87.7319 22.6827C88.5758 21.2174 89.7303 20.0961 91.1956 19.319C92.6611 18.5419 94.3042 18.1533 96.1248 18.1533C97.9455 18.1533 99.5885 18.5419 101.054 19.319C102.519 20.0961 103.674 21.2174 104.518 22.6827C105.361 24.1259 105.783 25.8024 105.783 27.7117C105.783 29.6212 105.35 31.3086 104.484 32.7741C103.641 34.2174 102.475 35.3275 100.987 36.1046C99.5219 36.8817 97.8788 37.2703 96.0582 37.2703ZM96.0582 32.3411C97.1461 32.3411 98.0676 31.9415 98.8226 31.1422C99.5997 30.3428 99.9882 29.1994 99.9882 27.7117C99.9882 26.2241 99.6106 25.0807 98.8558 24.2814C98.123 23.482 97.2127 23.0824 96.1248 23.0824C95.0147 23.0824 94.0932 23.482 93.3605 24.2814C92.6277 25.0585 92.2614 26.2019 92.2614 27.7117C92.2614 29.1994 92.6168 30.3428 93.3272 31.1422C94.06 31.9415 94.9703 32.3411 96.0582 32.3411Z" fill="white"/>
<path d="M114.866 18.1533C116.176 18.1533 117.32 18.4198 118.296 18.9527C119.295 19.4854 120.062 20.1849 120.595 21.0507V18.4198H126.29V36.9704C126.29 38.6801 125.945 40.2233 125.257 41.5998C124.591 42.9986 123.559 44.1088 122.16 44.9303C120.783 45.7519 119.062 46.1627 116.998 46.1627C114.244 46.1627 112.013 45.5077 110.303 44.1977C108.594 42.9098 107.617 41.1557 107.372 38.9354H113.001C113.179 39.6459 113.6 40.2011 114.267 40.6007C114.933 41.0225 115.754 41.2335 116.731 41.2335C117.908 41.2335 118.84 40.8893 119.529 40.2011C120.239 39.5349 120.595 38.4582 120.595 36.9704V34.3394C120.039 35.2053 119.273 35.9159 118.296 36.4709C117.32 37.0038 116.176 37.2703 114.866 37.2703C113.334 37.2703 111.946 36.8817 110.703 36.1046C109.46 35.3053 108.471 34.184 107.739 32.7407C107.028 31.2754 106.673 29.588 106.673 27.6785C106.673 25.769 107.028 24.0927 107.739 22.6494C108.471 21.2062 109.46 20.0961 110.703 19.319C111.946 18.5419 113.334 18.1533 114.866 18.1533ZM120.595 27.7117C120.595 26.2907 120.195 25.1694 119.395 24.348C118.618 23.5265 117.664 23.1157 116.531 23.1157C115.399 23.1157 114.433 23.5265 113.634 24.348C112.857 25.1474 112.468 26.2575 112.468 27.6785C112.468 29.0995 112.857 30.2319 113.634 31.0756C114.433 31.897 115.399 32.3078 116.531 32.3078C117.664 32.3078 118.618 31.897 119.395 31.0756C120.195 30.254 120.595 29.1328 120.595 27.7117Z" fill="white"/>
<path d="M137.87 37.2703C136.049 37.2703 134.406 36.8817 132.941 36.1046C131.498 35.3275 130.354 34.2174 129.51 32.7741C128.689 31.3309 128.278 29.6435 128.278 27.7117C128.278 25.8024 128.7 24.1259 129.544 22.6827C130.388 21.2174 131.542 20.0961 133.007 19.319C134.473 18.5419 136.116 18.1533 137.937 18.1533C139.757 18.1533 141.4 18.5419 142.866 19.319C144.331 20.0961 145.486 21.2174 146.329 22.6827C147.173 24.1259 147.595 25.8024 147.595 27.7117C147.595 29.6212 147.162 31.3086 146.296 32.7741C145.452 34.2174 144.287 35.3275 142.799 36.1046C141.334 36.8817 139.691 37.2703 137.87 37.2703ZM137.87 32.3411C138.958 32.3411 139.879 31.9415 140.634 31.1422C141.411 30.3428 141.8 29.1994 141.8 27.7117C141.8 26.2241 141.422 25.0807 140.668 24.2814C139.935 23.482 139.024 23.0824 137.937 23.0824C136.826 23.0824 135.905 23.482 135.172 24.2814C134.44 25.0585 134.073 26.2019 134.073 27.7117C134.073 29.1994 134.429 30.3428 135.139 31.1422C135.872 31.9415 136.782 32.3411 137.87 32.3411Z" fill="white"/>
<path d="M152.481 16.488C151.482 16.488 150.661 16.1994 150.017 15.6221C149.395 15.0226 149.084 14.2899 149.084 13.424C149.084 12.5359 149.395 11.8032 150.017 11.2259C150.661 10.6264 151.482 10.3267 152.481 10.3267C153.458 10.3267 154.258 10.6264 154.879 11.2259C155.523 11.8032 155.845 12.5359 155.845 13.424C155.845 14.2899 155.523 15.0226 154.879 15.6221C154.258 16.1994 153.458 16.488 152.481 16.488ZM155.312 18.4198V37.0038H149.617V18.4198H155.312Z" fill="white"/>
<path d="M164.135 21.0507C164.69 20.1849 165.456 19.4854 166.433 18.9527C167.411 18.4198 168.554 18.1533 169.864 18.1533C171.396 18.1533 172.783 18.5419 174.027 19.319C175.27 20.0961 176.248 21.2062 176.958 22.6494C177.69 24.0927 178.058 25.769 178.058 27.6785C178.058 29.588 177.69 31.2754 176.958 32.7407C176.248 34.184 175.27 35.3053 174.027 36.1046C172.783 36.8817 171.396 37.2703 169.864 37.2703C168.575 37.2703 167.433 37.0038 166.433 36.4709C165.456 35.938 164.69 35.2498 164.135 34.4061V45.8628H158.44V18.4198H164.135V21.0507ZM172.262 27.6785C172.262 26.2575 171.862 25.1474 171.062 24.348C170.285 23.5265 169.32 23.1157 168.166 23.1157C167.033 23.1157 166.067 23.5265 165.267 24.348C164.491 25.1694 164.103 26.2907 164.103 27.7117C164.103 29.1328 164.491 30.254 165.267 31.0756C166.067 31.897 167.033 32.3078 168.166 32.3078C169.298 32.3078 170.264 31.897 171.062 31.0756C171.862 30.2319 172.262 29.0995 172.262 27.6785Z" fill="white"/>
<path d="M187.606 37.2703C185.985 37.2703 184.541 36.9927 183.275 36.4377C182.011 35.8825 181.011 35.1277 180.279 34.1728C179.546 33.1959 179.135 32.108 179.046 30.909H184.675C184.741 31.5528 185.041 32.0746 185.574 32.4743C186.108 32.874 186.762 33.0738 187.54 33.0738C188.249 33.0738 188.793 32.9406 189.17 32.6741C189.57 32.3856 189.77 32.0191 189.77 31.5751C189.77 31.0422 189.493 30.6536 188.938 30.4094C188.383 30.143 187.483 29.8544 186.24 29.5435C184.908 29.2327 183.798 28.9107 182.909 28.5777C182.022 28.2225 181.256 27.6785 180.612 26.9457C179.967 26.1909 179.646 25.1806 179.646 23.9151C179.646 22.8493 179.935 21.8835 180.512 21.0175C181.111 20.1294 181.977 19.4299 183.109 18.9193C184.264 18.4086 185.63 18.1533 187.206 18.1533C189.537 18.1533 191.369 18.7306 192.701 19.8851C194.056 21.0398 194.833 22.5717 195.033 24.4812H189.77C189.682 23.8374 189.393 23.3267 188.904 22.9491C188.438 22.5717 187.817 22.383 187.04 22.383C186.374 22.383 185.862 22.5162 185.508 22.7827C185.153 23.0269 184.975 23.3711 184.975 23.8151C184.975 24.348 185.253 24.7477 185.808 25.0141C186.385 25.2806 187.272 25.547 188.472 25.8133C189.848 26.1686 190.969 26.524 191.835 26.8791C192.701 27.2122 193.456 27.7672 194.099 28.5444C194.766 29.2993 195.111 30.3206 195.133 31.6085C195.133 32.6964 194.822 33.6733 194.199 34.5393C193.601 35.383 192.724 36.0491 191.569 36.5375C190.437 37.0261 189.116 37.2703 187.606 37.2703Z" fill="white"/>
<path d="M215.969 18.4197V37.0037H210.274V34.4726C209.696 35.294 208.908 35.9602 207.909 36.4708C206.932 36.9594 205.845 37.2035 204.645 37.2035C203.224 37.2035 201.969 36.8927 200.882 36.271C199.793 35.6271 198.95 34.7056 198.351 33.5068C197.751 32.3077 197.451 30.8979 197.451 29.2769V18.4197H203.112V28.511C203.112 29.7544 203.435 30.7202 204.079 31.4085C204.722 32.0968 205.588 32.441 206.677 32.441C207.787 32.441 208.664 32.0968 209.308 31.4085C209.951 30.7202 210.274 29.7544 210.274 28.511V18.4197H215.969Z" fill="white"/>
<path d="M242.774 18.22C245.082 18.22 246.914 18.9193 248.269 20.3182C249.645 21.7169 250.333 23.6596 250.333 26.1464V37.0038H244.672V26.9126C244.672 25.7135 244.35 24.7921 243.706 24.1482C243.083 23.4821 242.219 23.149 241.108 23.149C239.998 23.149 239.12 23.4821 238.477 24.1482C237.856 24.7921 237.545 25.7135 237.545 26.9126V37.0038H231.882V26.9126C231.882 25.7135 231.561 24.7921 230.917 24.1482C230.295 23.4821 229.429 23.149 228.319 23.149C227.209 23.149 226.332 23.4821 225.688 24.1482C225.066 24.7921 224.756 25.7135 224.756 26.9126V37.0038H219.061V18.4198H224.756V20.7511C225.333 19.974 226.088 19.3634 227.02 18.9193C227.953 18.453 229.008 18.22 230.183 18.22C231.583 18.22 232.827 18.5196 233.914 19.1192C235.024 19.7187 235.89 20.5735 236.512 21.6837C237.156 20.6622 238.033 19.8296 239.143 19.1858C240.253 18.5419 241.464 18.22 242.774 18.22Z" fill="white"/>
</g>
<defs>
<clipPath id="clip0_1_30">
<rect width="250" height="46.7742" fill="white" transform="translate(0.333374 0.612793)"/>
</clipPath>
<clipPath id="clip1_1_30">
<rect width="55" height="55" fill="white" transform="translate(0.999878 -5.87891)"/>
</clipPath>
</defs>
</svg>
