<svg width="250" height="72" viewBox="0 0 250 72" fill="none" xmlns="http://www.w3.org/2000/svg">
<g id="lorem1">
<path id="Vector" d="M83.5049 45.7402V17.9609H78.9497V45.7402H83.5049Z" fill="white"/>
<path id="Vector_2" d="M86.2928 36.4805C86.2928 42.1558 90.1013 46.1883 95.8886 46.1883C101.676 46.1883 105.484 42.1558 105.484 36.4805C105.484 30.8052 101.676 26.7727 95.8886 26.7727C90.1013 26.7727 86.2928 30.8052 86.2928 36.4805ZM90.8854 36.4805C90.8854 33.1574 92.8643 30.8425 95.8886 30.8425C98.913 30.8425 100.892 33.1574 100.892 36.4805C100.892 39.7662 98.913 42.1185 95.8886 42.1185C92.8643 42.1185 90.8854 39.7662 90.8854 36.4805Z" fill="white"/>
<path id="Vector_3" d="M107.017 36.1071C107.017 41.4837 110.489 45.3668 115.679 45.3668C118.367 45.3668 120.682 44.284 121.84 42.4918V45.6282C121.84 48.6525 119.935 50.6688 116.762 50.6688C113.924 50.6688 111.982 49.2873 111.721 46.8603H107.129C107.726 51.6769 111.422 54.8133 116.5 54.8133C122.474 54.8133 126.283 50.8928 126.283 44.8068V27.2954H122.25L121.989 29.797C120.869 27.8555 118.554 26.698 115.828 26.698C110.564 26.698 107.017 30.6931 107.017 36.1071ZM111.646 35.9951C111.646 32.9334 113.588 30.6931 116.463 30.6931C119.599 30.6931 121.69 32.9707 121.69 35.9951C121.69 39.0568 119.599 41.409 116.463 41.409C113.625 41.409 111.646 39.0941 111.646 35.9951Z" fill="white"/>
<path id="Vector_4" d="M128.537 36.4805C128.537 42.1558 132.345 46.1883 138.133 46.1883C143.92 46.1883 147.729 42.1558 147.729 36.4805C147.729 30.8052 143.92 26.7727 138.133 26.7727C132.345 26.7727 128.537 30.8052 128.537 36.4805ZM133.13 36.4805C133.13 33.1574 135.108 30.8425 138.133 30.8425C141.157 30.8425 143.136 33.1574 143.136 36.4805C143.136 39.7662 141.157 42.1185 138.133 42.1185C135.108 42.1185 133.13 39.7662 133.13 36.4805Z" fill="white"/>
<path id="Vector_5" d="M152.658 23.5243C154.152 23.5243 155.384 22.3295 155.384 20.7987C155.384 19.3052 154.152 18.1104 152.658 18.1104C151.127 18.1104 149.97 19.3052 149.97 20.7987C149.97 22.3295 151.127 23.5243 152.658 23.5243ZM150.381 45.7402H154.936V27.2954H150.381V45.7402Z" fill="white"/>
<path id="Vector_6" d="M158.927 54.2905H163.37V43.2013C164.528 45.1055 167.029 46.2256 169.792 46.2256C175.244 46.2256 178.492 42.0438 178.417 36.2938C178.305 30.5065 174.982 26.7354 169.755 26.7354C166.955 26.7354 164.416 27.9675 163.295 30.0957L163.034 27.2954H158.927V54.2905ZM163.557 36.5178C163.557 33.1948 165.573 30.8798 168.747 30.8798C171.92 30.8798 173.825 33.2321 173.825 36.5178C173.825 39.8035 171.92 42.1185 168.747 42.1185C165.573 42.1185 163.557 39.8409 163.557 36.5178Z" fill="white"/>
<path id="Vector_7" d="M179.573 40.2142C179.722 43.8733 182.56 46.2256 186.966 46.2256C191.297 46.2256 194.247 43.9107 194.247 40.3263C194.247 37.6753 192.604 35.8831 189.58 35.1363L186.331 34.3522C184.95 33.9789 184.016 33.4935 184.016 32.2987C184.016 31.0292 185.024 30.1331 186.667 30.1331C188.385 30.1331 189.505 31.1039 189.505 32.7094H193.649C193.5 29.0503 190.774 26.7354 186.779 26.7354C182.821 26.7354 179.872 29.0503 179.872 32.56C179.872 34.9496 181.253 36.9285 184.8 37.862L188.011 38.6834C189.206 39.0194 189.953 39.5795 189.953 40.625C189.953 42.0811 188.571 42.7532 186.891 42.7532C184.875 42.7532 183.718 41.8198 183.718 40.2142H179.573Z" fill="white"/>
<path id="Vector_8" d="M203.696 46.2256C206.198 46.2256 208.588 45.0681 209.67 43.3506L209.969 45.7402H214.226V27.2954H209.67V36.9659C209.67 40.2889 208.401 42.1558 205.414 42.1558C203.099 42.1558 201.494 41.0357 201.494 37.2272V27.2954H196.938V38.8327C196.938 43.2386 199.328 46.2256 203.696 46.2256Z" fill="white"/>
<path id="Vector_9" d="M222.8 45.7402V35.1363C222.8 32.1493 224.555 30.7305 226.721 30.7305C228.886 30.7305 230.305 32.112 230.305 34.7256V45.7402H234.748V35.1737C234.748 32.1493 236.466 30.7305 238.631 30.7305C240.834 30.7305 242.253 32.112 242.253 34.7256V45.7402H246.659V33.6802C246.659 29.4237 244.307 26.7354 239.826 26.7354C237.026 26.7354 234.823 28.0795 233.927 30.2451C232.919 28.0795 230.903 26.7354 227.841 26.7354C225.675 26.7354 223.734 27.7435 222.651 29.3863L222.427 27.2954H218.245V45.7402H222.8Z" fill="white"/>
<path id="Vector_10" fill-rule="evenodd" clip-rule="evenodd" d="M3.24677 36.7067L3.2499 36.3813L3.25636 36.0558L3.26616 35.7304L3.2793 35.4049L3.29579 35.0794L3.31561 34.7539L3.33879 34.4286L3.3653 34.1033L3.39517 33.7781L3.42839 33.4529L3.46495 33.1283L3.50483 32.8036L3.54808 32.4792L3.59467 32.1552L3.64459 31.8315L3.69785 31.5083L3.75446 31.1852L3.81438 30.8628L3.87764 30.5408L3.94423 30.2192L4.01415 29.8981L4.08737 29.5776L4.16392 29.2578L4.24376 28.9385L4.32693 28.62L4.41337 28.302L4.50313 27.9847L4.59616 27.6683L4.69248 27.3528L4.79206 27.038L4.89491 26.724L5.00103 26.4109L5.1104 26.0987L5.223 25.7875L5.33884 25.4773L5.4579 25.168L5.58019 24.8599L5.70568 24.5528L5.83436 24.2469L5.96623 23.942L6.10128 23.6383L6.23949 23.3359L6.38086 23.0347L6.52537 22.7347L6.67302 22.436L6.82378 22.1388L6.97764 21.8429L7.13461 21.5482L7.29464 21.2552L7.45774 20.9635L7.62391 20.6732L7.7931 20.3846L7.96532 20.0974L8.14055 19.8119L8.31878 19.5279L8.49998 19.2456L8.68415 18.9651L8.87128 18.686L9.06133 18.4089L9.2543 18.1334L9.45016 17.8597L9.64889 17.588L9.8505 17.3179L10.0549 17.0498L10.2622 16.7836L10.4723 16.5192L10.6852 16.2569L10.9008 15.9965L11.1192 15.7382L11.3404 15.4819L11.5642 15.2276L11.7907 14.9755L12.0199 14.7255L12.2518 14.4776L12.4863 14.232L12.7234 13.9885L12.9631 13.7472L13.2053 13.5082L13.4501 13.2715L13.6974 13.0371L13.9472 12.8051L14.1995 12.5754L14.4542 12.3481L14.7114 12.1232L14.9709 11.9007L15.2329 11.6807L15.4971 11.4632L15.7638 11.2482L16.0327 11.0357L16.3039 10.8257L16.5773 10.6184L16.8531 10.4136L17.131 10.2115L17.411 10.0121L17.6932 9.81526L17.9776 9.62116L18.264 9.42974L18.5524 9.24109L18.843 9.05518L19.1357 8.87206L19.4302 8.69174L19.7268 8.51422L20.0252 8.33957L20.3255 8.16776L20.6278 7.99883L20.9318 7.83281L21.2377 7.66969L21.5453 7.50953L21.8547 7.35231L22.1659 7.19807L22.4787 7.04682L22.7934 6.89857L23.1094 6.75336L23.4273 6.6112L23.7466 6.4721L24.0675 6.33607L24.3899 6.20315L24.7138 6.07333L25.0391 5.94663L25.3659 5.82309L25.694 5.70268L26.0236 5.58547L26.3544 5.47143L26.6865 5.36059L27.0198 5.25297L27.3544 5.14857L27.6903 5.04742L28.0273 4.94953L28.3653 4.85491L28.7046 4.76354L29.0448 4.67547L29.3861 4.59072L29.7283 4.50929L30.0716 4.43116L30.4158 4.35638L30.7607 4.28494L31.1067 4.21685L31.4534 4.15215L31.801 4.0908L32.1494 4.03284L32.4984 3.97828L32.8481 3.92711L33.1984 3.87937L33.5494 3.83504L33.901 3.79413L34.2531 3.75663L34.6057 3.7226L34.9588 3.692L35.3123 3.66484L35.6662 3.64116L37.5695 3.53247L37.6781 12.7024L37.7403 12.7017L38.0031 12.7013L38.2659 12.7035L38.5287 12.7083L38.7919 12.7157L39.0549 12.7257L39.318 12.7382L39.5812 12.7533L39.8443 12.7711L40.1073 12.7914L40.3705 12.8143L40.6333 12.8398L40.8961 12.8679L41.1586 12.8986L41.4211 12.9319L41.6833 12.9678L41.9453 13.0063L42.207 13.0474L42.4685 13.0911L42.7296 13.1373L42.9904 13.1862L43.2508 13.2376L43.5107 13.2916L43.7705 13.3482L44.0296 13.4074L44.2882 13.4691L44.5464 13.5334L44.8041 13.6003L45.0611 13.6698L45.3175 13.7418L45.5736 13.8164L45.8287 13.8935L46.0833 13.9731L46.3372 14.0553L46.5904 14.1401L46.8429 14.2273L47.0945 14.3171L47.3455 14.4094L47.5955 14.5042L47.8447 14.6015L48.093 14.7014L48.3404 14.8037L48.5869 14.9084L48.8325 15.0157L49.0771 15.1254L49.3206 15.2376L49.5632 15.3522L49.8047 15.4693L50.0451 15.5888L50.2844 15.7107L50.5226 15.835L50.7596 15.9617L50.9955 16.0908L51.23 16.2223L51.4635 16.3562L51.6956 16.4924L51.9265 16.631L52.156 16.7719L52.3843 16.9151L52.6111 17.0607L52.8365 17.2084L53.0606 17.3586L53.2833 17.511L53.5044 17.6656L53.7242 17.8226L53.9424 17.9817L54.1589 18.143L54.3742 18.3067L54.5877 18.4724L54.7997 18.6404L55.0099 18.8104L55.2187 18.9826L55.4257 19.1571L55.631 19.3336L55.8348 19.5122L56.0367 19.6929L56.2367 19.8757L56.4351 20.0606L56.6317 20.2474L56.8265 20.4362L57.0193 20.6271L57.2104 20.82L57.3995 21.0149L57.5869 21.2117L57.7721 21.4104L57.9555 21.611L58.1369 21.8136L58.3162 22.018L58.4937 22.2244L58.669 22.4325L58.8424 22.6424L59.0136 22.8542L59.1828 23.0677L59.3499 23.283L59.5148 23.5L59.6776 23.7188L59.8382 23.9393L59.9966 24.1615L60.1528 24.3854L60.3068 24.6107L60.4586 24.8378L60.6081 25.0666L60.7554 25.2969L60.9002 25.5287L61.0429 25.762L61.1831 25.9969L61.3211 26.2333L61.4567 26.4711L61.5899 26.7104L61.7208 26.9511L61.8492 27.1932L61.9752 27.4367L62.0987 27.6815L62.2198 27.9276L62.3385 28.1752L62.4547 28.4239L62.5684 28.6739L62.6796 28.9252L62.7882 29.1776L62.8942 29.4313L62.9977 29.686L63.0987 29.942L63.1971 30.199L63.2929 30.4573L63.386 30.7164L63.4766 30.9768L63.5646 31.238L63.65 31.5003L63.7326 31.7635L63.8127 32.0276L63.8899 32.2927L63.9646 32.5586L64.0365 32.8255L64.1059 33.0932L64.1723 33.3615L64.2362 33.6308L64.2973 33.9008L64.3555 34.1716L64.4112 34.4429L64.464 34.7151L64.514 34.9878L64.5614 35.2612L64.6059 35.5351L64.6476 35.8096L64.6865 36.0847L64.7226 36.3602L64.7559 36.6364L64.7864 36.9128L64.814 37.1898L64.8388 37.467L64.8609 37.7448L64.88 38.0229L64.8963 38.3013L64.9098 38.5799L64.9205 38.8589L64.9281 39.138L64.9331 39.4174L64.9351 39.6969L64.9343 39.9766L64.9305 40.2565L64.9239 40.5365L64.9145 40.8164L64.9021 41.0964L64.887 41.3765L64.8688 41.6565L64.8479 41.9365L64.824 42.2164L64.7973 42.4963L64.7677 42.776L64.7351 43.0554L64.6997 43.3347L64.6615 43.6138L64.6203 43.8927L64.5763 44.1713L64.5294 44.4495L64.4796 44.7274L64.427 45.005L64.3714 45.2823L64.313 45.5591L64.2516 45.8354L64.1875 46.1114L64.1206 46.3867L64.0507 46.6615L63.9779 46.9357L63.9024 47.2094L63.824 47.4825L63.7429 47.7549L63.6588 48.0268L63.5718 48.2977L63.4822 48.5682L63.3896 48.8377L63.2942 49.1065L63.1961 49.3745L63.0951 49.6416L62.9914 49.9078L62.8849 50.1732L62.7757 50.4377L62.6636 50.7011L62.5489 50.9638L62.4313 51.2252L62.311 51.4857L62.188 51.7451L62.0623 52.0034L61.9338 52.2607L61.8028 52.5167L61.6688 52.7718L61.5325 53.0253L61.3932 53.2779L61.2515 53.5291L61.107 53.7791L60.9599 54.0278L60.8102 54.275L60.658 54.5211L60.5029 54.7656L60.3455 55.0088L60.1856 55.2505L60.0229 55.4908L59.8578 55.7295L59.6901 55.9669L59.52 56.2026L59.3473 56.4369L59.1721 56.6695L58.9945 56.9005L58.8145 57.1297L58.632 57.3575L58.4471 57.5834L58.2598 57.8076L58.07 58.0302L57.8779 58.251L57.6835 58.47L57.4867 58.6872L57.2877 58.9026L57.0864 59.1161L56.8826 59.3278L56.6768 59.5373L56.4685 59.7451L56.2581 59.951L56.0456 60.1549L55.8309 60.3568L55.614 60.5567L55.3948 60.7545L55.1735 60.9502L54.9503 61.1438L54.7248 61.3356L54.4974 61.525L54.2679 61.7122L54.0364 61.8974L53.8028 62.0804L53.5672 62.261L53.3297 62.4395L53.0903 62.6158L52.849 62.7898L52.6057 62.9614L52.3606 63.1308L52.1137 63.2979L51.8649 63.4625L51.6143 63.6248L51.362 63.7849L51.108 63.9424L50.8521 64.0976L50.5945 64.2502L50.3352 64.4005L50.0745 64.5482L49.8119 64.6933L49.5479 64.8362L49.2822 64.9763L49.0149 65.114L48.7461 65.2492L48.4758 65.3817L48.2041 65.5115L47.9309 65.639L47.6562 65.7636L47.3802 65.8857L47.1028 66.005L46.824 66.1218L46.544 66.2359L46.2627 66.3472L45.98 66.4558L45.6961 66.5619L45.411 66.6649L45.1247 66.7654L44.8373 66.863L44.5489 66.958L44.2591 67.05L43.9684 67.1393L43.6766 67.2258L43.3839 67.3094L43.0901 67.3903L42.7955 67.4683L42.4997 67.5433L42.2033 67.6156L41.9059 67.6851L41.6075 67.7515L41.3085 67.8151L41.0086 67.8758L40.708 67.9336L40.4067 67.9885L40.1047 68.0403L39.802 68.0893L39.4987 68.1354L39.1947 68.1784L38.8903 68.2185L38.5852 68.2557L38.2796 68.2898L37.9736 68.3209L37.6671 68.3492L37.3602 68.3744L37.0529 68.3966L36.7453 68.4157L36.4372 68.432L36.1289 68.4451L35.8205 68.4552L35.5115 68.4623L35.2026 68.4664L34.8934 68.4675L34.5841 68.4656L34.2747 68.4606L33.9651 68.4526L33.6555 68.4414L33.346 68.4273L33.0364 68.4102L32.727 68.3899L32.4174 68.3667L32.1081 68.3404L31.7989 68.311L31.4898 68.2787L31.181 68.2433L30.8724 68.2049L30.564 68.1633L30.256 68.1187L29.9482 68.0711L29.6409 68.0205L29.3339 67.9669L29.0273 67.9101L28.7213 67.8503L28.4156 67.7877L28.1106 67.7218L27.8059 67.6529L27.502 67.5812L27.1985 67.5063L26.8958 67.4284L26.5937 67.3476L26.2924 67.2638L25.9917 67.177L25.6917 67.0872L25.3927 66.9943L25.0945 66.8985L24.7971 66.7998L24.5005 66.6981L24.2049 66.5933L23.9102 66.4859L23.6166 66.3753L23.3239 66.2619L23.0323 66.1455L22.7417 66.0261L22.4523 65.9039L22.164 65.7789L21.8768 65.651L21.5908 65.5201L21.306 65.3864L21.0226 65.2498L20.7404 65.1104L20.4594 64.9682L20.1799 64.8232L19.9018 64.6753L19.6248 64.5248L19.3495 64.3714L19.0757 64.2153L18.8033 64.0563L18.5323 63.8946L18.263 63.7304L17.9951 63.5632L17.7289 63.3935L17.4645 63.2209L17.2015 63.0459L16.9403 62.868L16.6809 62.6877L16.4231 62.5047L16.1671 62.319L15.9129 62.1308L15.6605 61.9399L15.41 61.7466L15.1614 61.5508L14.9146 61.3523L14.6698 61.1515L14.427 60.9481L14.1861 60.7422L13.9473 60.5339L13.7105 60.3231L13.4758 60.1099L13.2431 59.8945L13.0126 59.6765L12.7842 59.4563L12.5579 59.2336L12.3339 59.0088L12.112 58.7817L11.8924 58.5521L11.6751 58.3205L11.4601 58.0865L11.2473 57.8503L11.0369 57.612L10.8289 57.3716L10.6232 57.1289L10.4199 56.8843L10.2191 56.6373L10.0207 56.3885L9.82482 56.1375L9.63139 55.8846L9.44048 55.6296L9.25211 55.3726L9.06629 55.1136L8.88305 54.8528L8.70241 54.5901L8.52439 54.3255L8.34902 54.0589L8.17631 53.7907L8.00626 53.5206L7.83892 53.2487L7.67431 52.9752L7.51243 52.6997L7.35332 52.4227L7.19698 52.144L7.04342 51.8636L6.89269 51.5815L6.74477 51.2979L6.59972 51.0128L6.45751 50.7261L6.31821 50.438L6.1818 50.1482L6.04829 49.8571L5.91772 49.5644L5.79009 49.2706L5.66543 48.9752L5.54376 48.6786L5.42506 48.3805L5.30938 48.0812L5.19673 47.7807L5.08711 47.4789L4.98053 47.176L4.87701 46.8719L4.77657 46.5666L4.67923 46.2602L4.58498 45.9528L4.49386 45.6443L4.40586 45.3347L4.32099 45.0242L4.23927 44.7128L4.16071 44.4005L4.08532 44.0872L4.01313 43.7731L3.94412 43.458L3.87831 43.1422L3.81571 42.8256L3.75633 42.5084L3.70017 42.1904L3.64727 41.8718L3.59759 41.5524L3.55118 41.2325L3.50803 40.9119L3.46816 40.5907L3.43155 40.2692L3.39823 39.9471L3.36819 39.6247L3.34146 39.3016L3.31802 38.9782L3.29789 38.6545L3.28107 38.3305L3.26756 38.0062L3.25737 37.6817L3.2505 37.3568L3.24698 37.0318L3.24677 36.7067ZM34.7047 12.8945L34.6307 6.64414L34.5604 6.65093L34.2377 6.68528L33.9158 6.72275L33.594 6.7634L33.2736 6.80706L32.9534 6.85392L32.6336 6.9039L32.3148 6.95695L31.9963 7.01317L31.6794 7.07231L31.362 7.13476L31.0469 7.20002L30.7313 7.26857L30.4174 7.34004L30.1037 7.41468L29.7916 7.49218L29.4802 7.5728L29.1697 7.65642L28.8601 7.74305L28.552 7.8326L28.2443 7.92523L27.9383 8.02073L27.6331 8.11927L27.3296 8.22054L27.0265 8.325L26.725 8.43226L26.425 8.54236L26.1258 8.65546L25.8283 8.77132L25.5323 8.88997L25.2372 9.01167L24.9435 9.13614L24.6513 9.26344L24.3607 9.39343L24.0716 9.52624L23.7841 9.66172L23.4976 9.8002L23.2132 9.9412L22.9302 10.085L22.6489 10.2314L22.3692 10.3806L22.0914 10.5323L21.8148 10.6868L21.5399 10.844L21.2675 11.0035L20.996 11.1661L20.727 11.3308L20.4598 11.4981L20.1938 11.6681L19.93 11.8406L19.6682 12.0157L19.4088 12.1927L19.1503 12.373L18.8945 12.5551L18.6406 12.7398L18.3885 12.927L18.1386 13.1164L17.8911 13.3082L17.645 13.5026L17.4016 13.6988L17.1601 13.8976L16.9208 14.0986L16.6836 14.302L16.4489 14.5072L16.2159 14.7151L15.9856 14.9248L15.7572 15.137L15.5315 15.3509L15.3078 15.5671L15.0867 15.7853L14.8678 16.0057L14.651 16.2283L14.437 16.4525L14.2255 16.6786L14.0158 16.9073L13.8091 17.1375L13.6048 17.3693L13.4027 17.6036L13.2035 17.8393L13.0066 18.0771L12.8122 18.3166L12.6204 18.558L12.4311 18.801L12.2447 19.0456L12.0606 19.292L11.8791 19.5404L11.7005 19.7899L11.5242 20.0416L11.3508 20.2945L11.1801 20.549L11.0119 20.8052L10.8466 21.0628L10.684 21.3218L10.5241 21.5823L10.3671 21.8442L10.2126 22.1076L10.061 22.3726L9.91228 22.6385L9.76626 22.9058L9.62303 23.1747L9.48271 23.4446L9.34514 23.7159L9.21053 23.9882L9.07873 24.2617L8.94983 24.5364L8.82375 24.8123L8.70064 25.0891L8.58034 25.3672L8.46297 25.6463L8.3486 25.9261L8.23709 26.2071L8.1285 26.4891L8.0229 26.7719L7.92022 27.0557L7.82058 27.3401L7.72381 27.6257L7.63004 27.9119L7.53928 28.1989L7.45152 28.4864L7.36668 28.775L7.28491 29.064L7.20613 29.3537L7.13034 29.644L7.05756 29.9351L6.98782 30.2265L6.9211 30.5185L6.8574 30.811L6.79673 31.1041L6.7391 31.3974L6.68449 31.6912L6.63293 31.9854L6.58441 32.28L6.53894 32.5748L6.49651 32.87L6.45712 33.1654L6.42077 33.461L6.38748 33.7568L6.35724 34.0529L6.33004 34.349L6.30589 34.6451L6.28478 34.9416L6.26673 35.238L6.25172 35.5343L6.23975 35.8307L6.23082 36.1269L6.22495 36.4232L6.22209 36.7193L6.22228 37.0154L6.2255 37.3112L6.23175 37.607L6.24102 37.9024L6.25331 38.1976L6.26863 38.4925L6.28694 38.787L6.30827 39.0813L6.33261 39.3752L6.35995 39.6687L6.39026 39.9619L6.42357 40.2544L6.45985 40.5466L6.4991 40.8382L6.54133 41.1292L6.58652 41.4198L6.63464 41.7096L6.68573 41.9989L6.73974 42.2875L6.79667 42.5753L6.85652 42.8627L6.91928 43.149L6.98495 43.4347L7.0535 43.7196L7.12493 44.0037L7.19925 44.287L7.27639 44.5692L7.35642 44.8507L7.43928 45.1312L7.52496 45.4107L7.61347 45.6893L7.70475 45.9667L7.79884 46.2432L7.89573 46.5185L7.99537 46.7929L8.09774 47.0659L8.20292 47.338L8.31076 47.6088L8.42133 47.8784L8.53462 48.1468L8.65058 48.4138L8.76923 48.6797L8.89053 48.9443L9.01448 49.2075L9.14103 49.4693L9.27022 49.7297L9.40199 49.9888L9.53636 50.2464L9.67327 50.5026L9.81276 50.7573L9.95475 51.0104L10.0993 51.262L10.2463 51.5122L10.3958 51.7606L10.5477 52.0075L10.7021 52.2528L10.8589 52.4963L11.0182 52.7383L11.1798 52.9786L11.3438 53.217L11.5101 53.4539L11.6789 53.689L11.8498 53.9222L12.0232 54.1537L12.1987 54.3833L12.3766 54.611L12.5566 54.8369L12.7388 55.0609L12.9233 55.2831L13.1099 55.5033L13.2987 55.7214L13.4896 55.9377L13.6827 56.152L13.8778 56.3641L14.0749 56.5744L14.2741 56.7825L14.4753 56.9886L14.6786 57.1927L14.8838 57.3945L15.091 57.5943L15.3001 57.7919L15.5111 57.9875L15.724 58.1808L15.9388 58.3719L16.1552 58.5607L16.3737 58.7474L16.594 58.9318L16.8158 59.114L17.0396 59.294L17.2649 59.4714L17.4921 59.6468L17.7208 59.8198L17.9513 59.9904L18.1833 60.1586L18.4169 60.3245L18.652 60.488L18.8888 60.6492L19.127 60.8078L19.3669 60.9641L19.608 61.118L19.8507 61.2693L20.0948 61.4183L20.3401 61.5648L20.587 61.7088L20.8351 61.8502L21.0846 61.9891L21.3352 62.1255L21.5873 62.2594L21.8404 62.3907L22.0948 62.5196L22.3505 62.6458L22.6073 62.7695L22.8651 62.8906L23.124 63.0091L23.3839 63.1248L23.6451 63.2382L23.9072 63.3487L24.1703 63.4568L24.4343 63.5622L24.6992 63.6648L24.9651 63.7649L25.2317 63.8623L25.4992 63.957L25.7677 64.049L26.0369 64.1385L26.3068 64.2252L26.5773 64.3091L26.8489 64.3904L27.1208 64.469L27.3935 64.5448L27.6669 64.618L27.9408 64.6885L28.2153 64.7562L28.4901 64.8211L28.7658 64.8834L29.0417 64.9429L29.318 64.9997L29.595 65.0537L29.8723 65.105L30.1498 65.1536L30.4278 65.1994L30.706 65.2424L30.9846 65.2826L31.2635 65.3201L31.5424 65.355L31.8216 65.387L32.101 65.4162L32.3805 65.4429L32.6602 65.4666L32.9399 65.4877L33.2197 65.5058L33.4995 65.5214L33.7792 65.5341L34.0589 65.5442L34.3386 65.5515L34.6184 65.5559L34.8977 65.5576L35.1771 65.5567L35.4563 65.5529L35.7352 65.5466L36.014 65.5373L36.2925 65.5255L36.5708 65.5109L36.8485 65.4935L37.1261 65.4735L37.4034 65.4508L37.6802 65.4253L37.9565 65.3971L38.2325 65.3662L38.5078 65.3328L38.7828 65.2966L39.0572 65.2576L39.331 65.2161L39.6042 65.1719L39.877 65.125L40.149 65.0755L40.4203 65.0234L40.6909 64.9687L40.9609 64.9112L41.23 64.8513L41.4984 64.7886L41.7661 64.7234L42.0328 64.6557L42.2987 64.5852L42.5636 64.5123L42.8279 64.4369L43.0911 64.3588L43.3534 64.2782L43.6146 64.1953L43.875 64.1096L44.1343 64.0216L44.3922 63.931L44.6495 63.8378L44.9055 63.7424L45.1604 63.6443L45.4141 63.544L45.6666 63.4412L45.9179 63.3359L46.168 63.2282L46.4169 63.1182L46.6643 63.0058L46.9107 62.8911L47.1557 62.7739L47.3992 62.6545L47.6416 62.5326L47.8823 62.4086L48.1218 62.2823L48.3599 62.1536L48.5963 62.0227L48.8313 61.8896L49.0648 61.7544L49.2971 61.6167L49.5273 61.4771L49.7565 61.3351L49.9836 61.1911L50.2093 61.0448L50.4335 60.8964L50.656 60.7458L50.8765 60.5935L51.0955 60.4388L51.3128 60.2822L51.5284 60.1235L51.7424 59.9627L51.9542 59.8002L52.1648 59.6352L52.3731 59.4687L52.5796 59.3002L52.7846 59.1295L52.9875 58.957L53.1883 58.7828L53.3875 58.6065L53.5846 58.4286L53.7799 58.2487L53.9732 58.067L54.1643 57.8838L54.3537 57.6984L54.5411 57.5114L54.7263 57.3227L54.9096 57.1323L55.0906 56.9404L55.2695 56.7469L55.4468 56.5511L55.6214 56.3544L55.7943 56.1557L55.9648 55.9557L56.1333 55.7539L56.2995 55.5508L56.4635 55.3461L56.6255 55.1398L56.7851 54.9323L56.9427 54.7231L57.0977 54.5127L57.2508 54.3007L57.4018 54.0872L57.5498 53.8729L57.6961 53.6568L57.8398 53.4398L57.9813 53.2211L58.1208 53.0011L58.2575 52.7804L58.3919 52.5583L58.5242 52.3344L58.6537 52.1102L58.7812 51.8844L58.9063 51.6575L59.0287 51.4299L59.149 51.2007L59.2669 50.9705L59.382 50.7401L59.495 50.5078L59.6055 50.2747L59.7135 50.0409L59.819 49.8062L59.9221 49.5705L60.0226 49.3341L60.1208 49.0964L60.2164 48.8581L60.3094 48.6196L60.4 48.3794L60.488 48.1391L60.5737 47.8977L60.6568 47.6558L60.7374 47.4132L60.8151 47.1705L60.8908 46.926L60.9635 46.6818L61.0338 46.4369L61.1016 46.1916L61.1669 45.9453L61.2294 45.699L61.2896 45.452L61.3471 45.2044L61.4021 44.9567L61.4546 44.7083L61.5042 44.4601L61.5515 44.2107L61.5961 43.962L61.6382 43.7123L61.6776 43.4625L61.7145 43.2127L61.7489 42.9623L61.7805 42.7123L61.8097 42.4612L61.8362 42.211L61.8602 41.9601L61.8815 41.7096L61.9003 41.4583L61.9166 41.208L61.9302 40.9568L61.9412 40.7055L61.9497 40.4549L61.9557 40.2047L61.9589 39.9536L61.9597 39.7029L61.958 39.4526L61.9536 39.2024L61.9466 38.9523L61.937 38.7031L61.925 38.4529L61.9104 38.2039L61.8932 37.9549L61.8736 37.7067L61.8513 37.458L61.8266 37.2104L61.7994 36.9627L61.7695 36.7158L61.7372 36.469L61.7024 36.2231L61.6649 35.977L61.6252 35.732L61.583 35.4878L61.5382 35.2435L61.4908 35L61.4411 34.7575L61.3888 34.5148L61.3344 34.2739L61.2771 34.0326L61.2179 33.793L61.1557 33.5531L61.0914 33.3149L61.0247 33.0771L60.9555 32.8398L60.8841 32.6039L60.8102 32.3688L60.7338 32.1339L60.6554 31.9008L60.5742 31.6679L60.4911 31.4364L60.4054 31.2054L60.3175 30.976L60.2271 30.7469L60.1346 30.5192L60.0399 30.2929L59.943 30.0675L59.8434 29.8425L59.7422 29.6196L59.6382 29.3969L59.5323 29.1763L59.4242 28.9565L59.3136 28.7375L59.2013 28.5203L59.0865 28.3041L58.9695 28.0888L58.851 27.8757L58.7297 27.663L58.6067 27.4521L58.4812 27.2422L58.3542 27.0344L58.2245 26.8271L58.0934 26.6218L57.9598 26.4174L57.8244 26.2148L57.6872 26.014L57.5476 25.814L57.4062 25.6157L57.263 25.419L57.1177 25.224L56.9706 25.0302L56.8216 24.8383L56.6708 24.6477L56.518 24.4589L56.3635 24.2718L56.207 24.086L56.0487 23.9021L55.8888 23.7198L55.7273 23.5393L55.5638 23.3604L55.3982 23.183L55.2318 23.008L55.0627 22.8339L54.8927 22.6623L54.7208 22.492L54.5474 22.3239L54.3718 22.157L54.1955 21.9927L54.0169 21.8297L53.8369 21.6687L53.6559 21.5097L53.4731 21.3526L53.2882 21.1969L53.1023 21.0435L52.9151 20.892L52.7263 20.7425L52.5361 20.5948L52.3448 20.4495L52.1515 20.3054L51.9575 20.164L51.7619 20.0244L51.5648 19.8865L51.3669 19.751L51.1669 19.617L50.9669 19.4859L50.7646 19.3562L50.5617 19.2287L50.3572 19.1033L50.1518 18.9799L49.9453 18.8588L49.738 18.7399L49.5287 18.6226L49.3195 18.508L49.1085 18.3951L48.8966 18.2846L48.6839 18.1763L48.47 18.07L48.2552 17.9657L48.0396 17.864L47.8229 17.7641L47.6057 17.6667L47.3873 17.5713L47.1612 17.4752L46.9486 17.3873L46.7273 17.2984L46.5063 17.2122L46.2836 17.1276L46.0609 17.0458L45.8372 16.9659L45.613 16.8885L45.3878 16.813L45.1625 16.7401L44.9362 16.6693L44.7094 16.6008L44.4825 16.5347L44.2546 16.4707L44.0258 16.4089L43.7974 16.3496L43.5685 16.2926L43.3382 16.2376L43.1086 16.1852L42.8779 16.1349L42.6473 16.087L42.4158 16.0413L42.1846 15.9979L41.9528 15.9569L41.7211 15.9182L41.4883 15.8817L41.2562 15.8476L41.0236 15.8157L40.7906 15.7861L40.5576 15.7589L40.3247 15.734L40.0916 15.7114L39.8583 15.691L39.6248 15.673L39.3912 15.6573L39.1583 15.6439L38.9252 15.6327L38.6912 15.6239L38.4586 15.6174L38.2255 15.6131L37.9925 15.6112L37.7593 15.6115L37.7125 15.612L37.786 21.8169L37.9184 21.8162L38.0886 21.8172L38.2589 21.8198L38.4294 21.8242L38.6 21.8302L38.7706 21.838L38.9412 21.8474L39.112 21.8584L39.2828 21.8713L39.4536 21.8857L39.6244 21.902L39.795 21.9198L39.9658 21.9395L40.1364 21.9607L40.3068 21.9836L40.4773 22.0084L40.6476 22.0347L40.8177 22.0628L40.9878 22.0927L41.1576 22.1242L41.3273 22.1575L41.4968 22.1924L41.6661 22.2289L41.8351 22.2672L42.0037 22.3073L42.1723 22.349L42.3403 22.3924L42.5081 22.4375L42.6757 22.4843L42.8429 22.5328L43.0098 22.583L43.1761 22.6347L43.3421 22.6883L43.5076 22.7435L43.6729 22.8005L43.8375 22.8591L44.0018 22.9193L44.1654 22.9812L44.3287 23.0448L44.4914 23.1101L44.6536 23.177L44.8151 23.2456L44.9761 23.3157L45.1365 23.3877L45.2963 23.461L45.4554 23.5362L45.614 23.613L45.7718 23.6914L45.9289 23.7714L46.0854 23.8531L46.2411 23.9362L46.3961 24.0211L46.5503 24.1075L46.7037 24.1955L46.8565 24.2851L47.0085 24.3763L47.1594 24.469L47.3096 24.5633L47.4589 24.6593L47.6075 24.7567L47.755 24.8555L47.9018 24.956L48.0476 25.0581L48.1924 25.1615L48.3362 25.2666L48.4791 25.3732L48.6211 25.4812L48.7619 25.5907L48.9018 25.7018L49.0406 25.8141L49.1784 25.9281L49.3151 26.0435L49.4508 26.1602L49.5854 26.2784L49.7188 26.3981L49.8511 26.5192L49.9822 26.6416L50.1122 26.7654L50.2409 26.8906L50.3685 27.0172L50.495 27.1451L50.6201 27.2745L50.7442 27.405L50.8667 27.537L50.9882 27.6703L51.1083 27.8049L51.2271 27.9406L51.3447 28.0778L51.4609 28.2161L51.5758 28.3557L51.6893 28.4966L51.8015 28.6386L51.9122 28.782L52.0216 28.9265L52.1296 29.0722L52.236 29.219L52.3412 29.3671L52.4448 29.5162L52.5471 29.6666L52.6477 29.818L52.7469 29.9705L52.8447 30.1242L52.9409 30.2789L53.0357 30.4346L53.1289 30.5914L53.2205 30.7494L53.3106 30.9081L53.399 31.068L53.4859 31.2289L53.5713 31.3907L53.655 31.5536L53.737 31.7174L53.8175 31.8821L53.8964 32.0477L53.9735 32.2141L54.049 32.3817L54.1229 32.5498L54.1951 32.719L54.2656 32.889L54.3344 33.0597L54.4015 33.2313L54.4667 33.4036L54.5304 33.5768L54.5922 33.7507L54.6524 33.9253L54.7109 34.1007L54.7674 34.2768L54.8223 34.4534L54.8753 34.6308L54.9266 34.8089L54.9761 34.9877L55.0237 35.167L55.0697 35.3469L55.1136 35.5274L55.1559 35.7084L55.1963 35.8901L55.2348 36.0722L55.2714 36.2549L55.3062 36.438L55.3391 36.6218L55.3703 36.8058L55.3995 36.9903L55.4268 37.1753L55.4523 37.3606L55.4758 37.5463L55.4976 37.7325L55.5172 37.919L55.5351 38.1057L55.5512 38.2929L55.5651 38.4802L55.5773 38.6679L55.5873 38.8557L55.5956 39.0438L55.602 39.2323L55.6063 39.4208L55.6088 39.6096L55.6093 39.7985L55.6078 39.9875L55.6044 40.1766L55.599 40.3659L55.5917 40.5554L55.5825 40.7446L55.5713 40.9341L55.5581 41.1237L55.543 41.3132L55.5258 41.5026L55.5068 41.692L55.4857 41.8813L55.4628 42.0708L55.4378 42.2599L55.4109 42.449L55.382 42.638L55.3511 42.8268L55.3184 43.0154L55.2835 43.2039L55.2468 43.3922L55.208 43.5802L55.1672 43.768L55.1247 43.9555L55.08 44.1427L55.0335 44.3295L54.9849 44.5162L54.9344 44.7024L54.882 44.8883L54.8276 45.0737L54.7713 45.2588L54.713 45.4435L54.6526 45.6278L54.5904 45.8114L54.5263 45.9946L54.4604 46.1774L54.3924 46.3596L54.3224 46.5412L54.2507 46.7224L54.177 46.9029L54.1013 47.083L54.0237 47.2622L53.9443 47.4409L53.863 47.619L53.7797 47.7963L53.6947 47.9729L53.6076 48.1489L53.5187 48.324L53.4279 48.4985L53.3354 48.6721L53.2409 48.845L53.1447 49.017L53.0466 49.1883L52.9466 49.3586L52.8448 49.5283L52.7412 49.6968L52.6359 49.8646L52.5286 50.0313L52.4197 50.1972L52.3088 50.362L52.1963 50.526L52.082 50.689L51.9659 50.8508L51.8481 51.0117L51.7286 51.1716L51.6073 51.3304L51.4843 51.488L51.3596 51.6445L51.2331 51.8L51.105 51.9542L50.9753 52.1075L50.8438 52.2594L50.7107 52.4102L50.576 52.5597L50.4396 52.7081L50.3016 52.8552L50.1622 53.0011L50.021 53.1456L49.8783 53.289L49.7338 53.4308L49.588 53.5716L49.4404 53.7109L49.2916 53.8487L49.1411 53.9854L48.989 54.1205L48.8356 54.2542L48.6805 54.3867L48.5242 54.5175L48.3662 54.6471L48.207 54.775L48.0461 54.9015L47.8839 55.0265L47.7205 55.15L47.5555 55.2719L47.3891 55.3924L47.2216 55.5114L47.0526 55.6286L46.8823 55.7443L46.7106 55.8584L46.5377 55.9709L46.3635 56.0818L46.1882 56.1911L46.0114 56.2985L45.8336 56.4045L45.6544 56.5088L45.4742 56.6112L45.2927 56.712L45.1101 56.8112L44.9263 56.9086L44.7414 57.0042L44.5554 57.0981L44.3684 57.1901L44.1802 57.2805L43.9909 57.369L43.8007 57.4557L43.6094 57.5406L43.4172 57.6237L43.2239 57.7049L43.0297 57.7843L42.8346 57.8619L42.6385 57.9375L42.4416 58.0114L42.2437 58.0833L42.045 58.1533L41.8453 58.2213L41.645 58.2875L41.4437 58.3516L41.2417 58.414L41.039 58.4744L40.8354 58.5326L40.6312 58.5891L40.4261 58.6435L40.2205 58.6959L40.0141 58.7464L39.8072 58.795L39.5994 58.8414L39.3912 58.8859L39.1823 58.9282L38.9729 58.9687L38.763 59.0071L38.5524 59.0435L38.3414 59.0778L38.13 59.1099L37.918 59.1401L37.7055 59.1682L37.4927 59.1943L37.2796 59.2182L37.0659 59.2401L36.852 59.2599L36.6377 59.2776L36.4231 59.2932L36.2081 59.3067L35.9929 59.318L35.7774 59.3273L35.5617 59.3344L35.3458 59.3395L35.1297 59.3424L34.9133 59.3432L34.6969 59.3419L34.4805 59.3383L34.2638 59.3328L34.0471 59.325L33.8304 59.3151L33.6135 59.3031L33.3968 59.289L33.1799 59.2727L32.9632 59.2542L32.7464 59.2336L32.5297 59.2109L32.3132 59.186L32.0968 59.1591L31.8804 59.1299L31.6643 59.0985L31.4484 59.0651L31.2326 59.0295L31.0171 58.9917L30.8018 58.952L30.5869 58.9099L30.3722 58.8656L30.1578 58.8193L29.9438 58.7709L29.7302 58.7203L29.5169 58.6675L29.3041 58.6127L29.0916 58.5557L28.8796 58.4966L28.6682 58.4354L28.4572 58.3721L28.2466 58.3067L28.0367 58.239L27.8274 58.1693L27.6185 58.0976L27.4104 58.0237L27.2029 57.9477L26.996 57.8696L26.7898 57.7894L26.5843 57.7073L26.3794 57.6229L26.1753 57.5365L25.9721 57.4482L25.7697 57.3576L25.5679 57.2651L25.3671 57.1706L25.1671 57.074L24.9679 56.9753L24.7695 56.8747L24.5723 56.7721L24.3758 56.6674L24.1804 56.5607L23.9859 56.4521L23.7924 56.3414L23.5998 56.2289L23.4085 56.1143L23.218 55.9977L23.0287 55.8794L22.8406 55.7589L22.6536 55.6367L22.4677 55.5123L22.283 55.3862L22.0994 55.2583L21.9171 55.1284L21.7359 54.9966L21.556 54.863L21.3773 54.7274L21.2 54.5901L21.024 54.451L20.8494 54.3099L20.676 54.1672L20.5039 54.0226L20.3333 53.8763L20.1641 53.7281L19.9963 53.5783L19.8299 53.4266L19.6651 53.2734L19.5016 53.1183L19.3396 52.9615L19.1792 52.8031L19.0205 52.643L18.8632 52.4812L18.7073 52.3179L18.5531 52.1528L18.4007 51.9862L18.2497 51.8179L18.1003 51.6481L17.9528 51.4766L17.8067 51.3037L17.6625 51.1292L17.5198 50.9531L17.3791 50.7757L17.2399 50.5966L17.1026 50.4161L16.9671 50.2341L16.8331 50.0508L16.7011 49.8659L16.5711 49.6797L16.4427 49.492L16.3162 49.3031L16.1917 49.1128L16.069 48.9211L15.9481 48.7281L15.8292 48.5338L15.7123 48.3382L15.5972 48.1414L15.4841 47.9432L15.373 47.744L15.2639 47.5433L15.1568 47.3417L15.0516 47.1388L14.9485 46.9347L14.8475 46.7295L14.7485 46.5232L14.6515 46.3159L14.5567 46.1073L14.4639 45.8979L14.3732 45.6873L14.2846 45.4757L14.1981 45.2632L14.1138 45.0497L14.0317 44.8351L13.9517 44.6196L13.8738 44.4034L13.7981 44.186L13.7247 43.968L13.6534 43.749L13.5843 43.5292L13.5174 43.3088L13.4528 43.0873L13.3904 42.8653L13.3303 42.6424L13.2724 42.4187L13.2168 42.1945L13.1634 41.9695L13.1124 41.7438L13.0636 41.5175L13.0171 41.2907L12.9729 41.0633L12.9311 40.8352L12.8915 40.6067L12.8543 40.3776L12.8194 40.1481L12.7869 39.918L12.7567 39.6875L12.7289 39.4565L12.7034 39.2252L12.6802 38.9935L12.6595 38.7614L12.6411 38.5289L12.6251 38.2963L12.6115 38.0632L12.6002 37.8299L12.5914 37.5964L12.5849 37.3627L12.5809 37.1287L12.5792 36.8945L12.58 36.6602L12.5831 36.4258L12.5887 36.1914L12.5967 35.9568L12.6071 35.7221L12.6199 35.4875L12.6351 35.2528L12.6528 35.0182L12.6729 34.7834L12.6954 34.549L12.7203 34.3145L12.7476 34.0802L12.7774 33.8459L12.8096 33.6119L12.8442 33.3779L12.8813 33.1443L12.9207 32.9109L12.9626 32.6778L13.0069 32.4448L13.0536 32.2122L13.1027 31.98L13.1543 31.7481L13.2083 31.5166L13.2646 31.2854L13.3234 31.0547L13.3846 30.8245L13.4481 30.5946L13.5141 30.3654L13.5825 30.1367L13.6532 29.9084L13.7264 29.6807L13.8019 29.4537L13.8798 29.2273L13.9601 29.0015L14.0427 28.7763L14.1277 28.5518L14.215 28.3281L14.3047 28.105L14.3967 27.8828L14.4911 27.6614L14.5878 27.4406L14.6868 27.2208L14.7881 27.0018L14.8918 26.7836L14.9977 26.5664L15.1059 26.3502L15.2164 26.1347L15.3292 25.9205L15.4442 25.707L15.5616 25.4946L15.6811 25.2833L15.8029 25.0729L15.9269 24.8638L16.0531 24.6557L16.1815 24.4487L16.3122 24.2429L16.445 24.0382L16.58 23.8347L16.7171 23.6325L16.8565 23.4315L16.9979 23.2317L17.1414 23.0331L17.2872 22.836L17.4349 22.6401L17.5849 22.4456L17.7369 22.2524L17.8909 22.0607L18.0469 21.8705L18.205 21.6815L18.3653 21.494L18.5274 21.308L18.6916 21.1235L18.8578 20.9406L19.0258 20.7591L19.196 20.5792L19.368 20.4008L19.5419 20.2242L19.7177 20.049L19.8955 19.8755L20.0752 19.7037L20.2567 19.5334L20.4399 19.3651L20.6252 19.1982L20.8122 19.0333L21.0008 18.87L21.1914 18.7084L21.3838 18.5487L21.5778 18.3908L21.7736 18.2346L21.9711 18.0804L22.1703 17.9279L22.3711 17.7774L22.5737 17.6287L22.7778 17.482L22.9835 17.3372L23.1909 17.1943L23.3998 17.0534L23.6102 16.9146L23.8224 16.7776L24.0359 16.6427L24.251 16.5098L24.4675 16.3789L24.6856 16.2501L24.9049 16.1234L25.1258 15.9988L25.3481 15.8762L25.5716 15.7558L25.7966 15.6376L26.0229 15.5214L26.2505 15.4074L26.4794 15.2956L26.7096 15.186L26.9411 15.0786L27.1737 14.9734L27.4076 14.8705L27.6427 14.7697L27.8789 14.6713L28.1162 14.5751L28.3546 14.4812L28.5942 14.3895L28.8348 14.3002L29.0765 14.2132L29.3192 14.1286L29.5628 14.0462L29.8075 13.9662L30.0529 13.8886L30.2995 13.8134L30.5469 13.7405L30.7953 13.67L31.0443 13.6019L31.2943 13.5363L31.5451 13.473L31.7968 13.4122L32.049 13.3539L32.3021 13.2979L32.5559 13.2444L32.8102 13.1934L33.0654 13.1449L33.3211 13.0989L33.5774 13.0553L33.8344 13.0142L34.0919 12.9756L34.3498 12.9396L34.6083 12.906L34.7047 12.8945ZM34.8138 22.0976L34.7395 15.8245L34.5276 15.8541L34.2999 15.8883L34.0719 15.9247L33.8455 15.9632L33.6187 16.004L33.393 16.0469L33.1679 16.0921L32.9435 16.1393L32.7197 16.1888L32.4963 16.2405L32.2736 16.2943L32.0518 16.3503L31.8302 16.4085L31.6174 16.4666L31.3906 16.531L31.1716 16.5955L30.9536 16.662L30.7367 16.7305L30.5203 16.8013L30.3047 16.8742L30.0901 16.949L29.8766 17.0258L29.664 17.1049L29.4523 17.1857L29.2414 17.2688L29.0322 17.3537L28.8229 17.4409L28.6153 17.5299L28.4086 17.6208L28.2034 17.7136L27.9987 17.8086L27.7951 17.9055L27.5934 18.0041L27.3919 18.1049L27.1925 18.2073L26.9935 18.312L26.7964 18.418L26.5997 18.5266L26.4049 18.6364L26.2114 18.7482L26.0188 18.862L25.8278 18.9774L25.6377 19.095L25.4495 19.2138L25.2622 19.3347L25.0766 19.4573L24.8924 19.5815L24.7094 19.7076L24.5276 19.8356L24.3479 19.9646L24.1692 20.0959L23.9919 20.2287L23.8162 20.3632L23.6422 20.499L23.4693 20.6369L23.2984 20.776L23.1289 20.9167L22.9607 21.0594L22.7947 21.2031L22.6297 21.3487L22.4664 21.4958L22.3049 21.6442L22.1451 21.794L21.9865 21.9456L21.8302 22.0982L21.6753 22.2524L21.5219 22.4083L21.3705 22.5653L21.2206 22.7239L21.0726 22.8836L20.9263 23.0446L20.7817 23.2071L20.6386 23.3711L20.4981 23.5359L20.3588 23.7023L20.2213 23.87L20.0857 24.0386L19.9521 24.2084L19.82 24.3799L19.6899 24.5521L19.5617 24.7257L19.4354 24.9003L19.3109 25.0761L19.1885 25.2528L19.0679 25.4307L18.949 25.6097L18.8322 25.7898L18.7174 25.9706L18.6046 26.1526L18.4935 26.3359L18.3844 26.5196L18.2774 26.7045L18.1723 26.8904L18.0693 27.0768L17.9682 27.2645L17.8688 27.4531L17.7719 27.642L17.6768 27.8323L17.5838 28.0232L17.4927 28.2146L17.4037 28.4071L17.3167 28.6002L17.2318 28.794L17.1489 28.9885L17.0682 29.1836L16.9895 29.3794L16.9127 29.576L16.838 29.7731L16.7656 29.9706L16.695 30.169L16.6268 30.3675L16.5604 30.5669L16.4963 30.7667L16.4341 30.967L16.3742 31.1677L16.3162 31.3688L16.2606 31.5703L16.2068 31.7724L16.1553 31.9747L16.1059 32.1774L16.0586 32.3805L16.0133 32.5838L15.9702 32.7875L15.9293 32.9914L15.8905 33.1955L15.8537 33.4L15.8192 33.6045L15.7867 33.8094L15.7564 34.0141L15.7282 34.2193L15.7021 34.4245L15.6781 34.6299L15.6563 34.8352L15.6366 35.0407L15.619 35.2463L15.6036 35.4516L15.5902 35.6573L15.579 35.8628L15.5699 36.0682L15.5629 36.2735L15.558 36.4787L15.5552 36.6839L15.5546 36.8891L15.556 37.094L15.5596 37.2987L15.5652 37.5033L15.5729 37.7075L15.5828 37.9117L15.5947 38.1156L15.6087 38.319L15.6248 38.5224L15.6429 38.7253L15.6632 38.9279L15.6854 39.1302L15.7098 39.3321L15.7362 39.5338L15.7646 39.7347L15.7951 39.9356L15.8277 40.1356L15.8622 40.3354L15.8988 40.5347L15.9374 40.7333L15.978 40.9317L16.0206 41.1292L16.0652 41.3265L16.1118 41.5227L16.1604 41.7187L16.211 41.914L16.2635 42.1086L16.3179 42.3024L16.3744 42.4958L16.4326 42.6883L16.493 42.8802L16.5552 43.0714L16.6193 43.2617L16.6854 43.4511L16.7533 43.6399L16.8231 43.8279L16.8948 44.0151L16.9684 44.2013L17.0437 44.3867L17.121 44.5713L17.2 44.7549L17.281 44.9375L17.3636 45.1193L17.4482 45.3L17.5346 45.4799L17.6226 45.6588L17.7125 45.8365L17.8041 46.0135L17.8974 46.1893L17.9925 46.364L18.0893 46.5377L18.1878 46.7102L18.288 46.8817L18.3899 47.052L18.4935 47.2213L18.5987 47.3893L18.7055 47.5562L18.8141 47.7221L18.924 47.8864L19.0359 48.0498L19.149 48.2119L19.264 48.3727L19.3804 48.5323L19.4984 48.6906L19.6179 48.8476L19.739 49.0034L19.8614 49.1578L19.9854 49.3109L20.1109 49.4627L20.2378 49.6132L20.3662 49.762L20.4961 49.9099L20.6273 50.056L20.7599 50.201L20.8938 50.3443L21.0292 50.4864L21.1659 50.627L21.3041 50.7661L21.4434 50.9037L21.5841 51.0399L21.7261 51.1747L21.8692 51.3078L22.0138 51.4396L22.1594 51.5696L22.3063 51.6982L22.4546 51.8253L22.6039 51.9508L22.7544 52.0748L22.906 52.1971L23.0588 52.3179L23.2127 52.437L23.3677 52.5547L23.5239 52.6706L23.6809 52.7849L23.839 52.8976L23.9982 53.0086L24.1585 53.118L24.3198 53.2258L24.482 53.3318L24.6451 53.4362L24.8093 53.539L24.9742 53.6399L25.1401 53.7393L25.307 53.8369L25.4745 53.9326L25.6432 54.0268L25.8123 54.1192L25.9826 54.2099L26.1536 54.2989L26.3252 54.3859L26.4977 54.4714L26.6711 54.555L26.845 54.637L27.0195 54.717L27.195 54.7955L27.3708 54.8719L27.5474 54.9466L27.7247 55.0196L27.9026 55.0907L28.0809 55.1601L28.2599 55.2276L28.4395 55.2933L28.6195 55.3573L28.8 55.4193L28.9812 55.4797L29.1627 55.538L29.3447 55.5946L29.5271 55.6494L29.7099 55.7023L29.893 55.7534L30.0766 55.8026L30.2606 55.8502L30.4448 55.8956L30.6294 55.9393L30.8143 55.9812L30.9995 56.0213L31.1849 56.0594L31.3705 56.0956L31.5565 56.13L31.7424 56.1627L31.9287 56.1935L32.1151 56.2222L32.3016 56.2494L32.4883 56.2745L32.675 56.2979L32.8619 56.3193L33.0487 56.339L33.2357 56.3567L33.4227 56.3726L33.6098 56.3865L33.7968 56.3989L33.9836 56.4091L34.1705 56.4177L34.3575 56.4244L34.5442 56.4292L34.7307 56.4321L34.9172 56.4333L35.1036 56.4326L35.2898 56.43L35.4758 56.4258L35.6615 56.4196L35.8473 56.4117L36.0325 56.4018L36.2175 56.3903L36.4023 56.3768L36.5869 56.3615L36.771 56.3445L36.9549 56.3256L37.1385 56.305L37.3216 56.2826L37.5044 56.2584L37.6867 56.2326L37.8687 56.2049L38.0502 56.1753L38.231 56.1442L38.4117 56.111L38.5917 56.0763L38.7713 56.0399L38.9505 56.0016L39.1287 55.9617L39.3067 55.9201L39.4839 55.8766L39.6607 55.8317L39.8369 55.7849L40.0123 55.7364L40.1872 55.6862L40.3614 55.6344L40.5348 55.581L40.7075 55.5258L40.8797 55.469L41.051 55.4106L41.2216 55.3505L41.3914 55.2888L41.5604 55.2255L41.7286 55.1606L41.896 55.094L42.0627 55.0258L42.2284 54.9562L42.3932 54.8849L42.5573 54.8122L42.7203 54.7378L42.8826 54.6619L43.044 54.5844L43.2041 54.5057L43.3638 54.425L43.5221 54.3432L43.6797 54.2596L43.8359 54.1748L43.9914 54.0885L44.146 54.0007L44.2992 53.9114L44.4516 53.8206L44.6029 53.7286L44.7529 53.6351L44.9023 53.5401L45.05 53.444L45.1969 53.3463L45.3429 53.2471L45.4874 53.1468L45.6305 53.0453L45.7731 52.942L45.914 52.838L46.0539 52.7323L46.1927 52.6253L46.3297 52.5174L46.4662 52.4078L46.6013 52.2971L46.7346 52.1854L46.8674 52.0719L46.9984 51.9578L47.1281 51.8425L47.257 51.7255L47.3839 51.608L47.5099 51.489L47.6346 51.3688L47.7576 51.2477L47.8796 51.1253L48.0002 51.0019L48.1193 50.8774L48.2369 50.7519L48.3533 50.6253L48.4684 50.4977L48.5817 50.3693L48.694 50.2394L48.8046 50.1089L48.9136 49.9774L49.0216 49.8446L49.1278 49.7115L49.2326 49.577L49.3361 49.4417L49.438 49.3054L49.5383 49.1683L49.637 49.0307L49.7346 48.8916L49.8304 48.7521L49.9247 48.6117L50.0177 48.4703L50.1086 48.3286L50.1986 48.1857L50.2867 48.042L50.3734 47.8979L50.4583 47.7529L50.5421 47.607L50.6237 47.461L50.7042 47.3136L50.783 47.1661L50.8599 47.0179L50.9357 46.8685L51.0094 46.7195L51.082 46.5688L51.1524 46.4187L51.2219 46.2669L51.2891 46.1154L51.3552 45.9627L51.4195 45.8101L51.482 45.6568L51.543 45.5029L51.6024 45.3485L51.6599 45.1942L51.7162 45.0388L51.7705 44.8833L51.8232 44.7274L51.8744 44.5711L51.9239 44.4143L51.9718 44.2573L52.0179 44.1002L52.0624 43.9424L52.105 43.7846L52.1463 43.6263L52.1857 43.4679L52.2236 43.3094L52.2598 43.1502L52.2942 42.9911L52.3271 42.8318L52.3581 42.6726L52.3877 42.513L52.4154 42.3528L52.4416 42.1932L52.4661 42.0331L52.4888 41.8729L52.5099 41.713L52.5294 41.5528L52.5472 41.392L52.5633 41.2325L52.5779 41.0716L52.5908 40.9114L52.6018 40.7515L52.6114 40.5911L52.6192 40.431L52.6253 40.2711L52.6299 40.1107L52.6326 39.9513L52.6339 39.7912L52.6335 39.6317L52.6315 39.4721L52.6278 39.3132L52.6224 39.1539L52.6154 38.995L52.6068 38.8367L52.5966 38.6779L52.5848 38.5196L52.5714 38.3622L52.5563 38.2042L52.5396 38.0472L52.5213 37.8899L52.5015 37.7334L52.48 37.5771L52.457 37.4209L52.4323 37.2654L52.4062 37.1104L52.3784 36.9557L52.349 36.8015L52.318 36.6471L52.2856 36.4938L52.2516 36.3411L52.2161 36.1885L52.1789 36.0362L52.1404 35.8852L52.1002 35.7338L52.0586 35.5836L52.0154 35.4336L51.9708 35.2846L51.9247 35.1357L51.877 34.9875L51.8279 34.8403L51.7774 34.6935L51.7252 34.5469L51.6719 34.4016L51.6169 34.2567L51.5606 34.1127L51.5028 33.969L51.4435 33.826L51.383 33.6843L51.3208 33.5427L51.2575 33.4023L51.1927 33.2627L51.1265 33.1234L51.0588 32.9849L50.9901 32.8477L50.9197 32.7109L50.8482 32.5753L50.7753 32.4406L50.701 32.306L50.6257 32.1731L50.5487 32.0406L50.4706 31.9093L50.3911 31.7784L50.3107 31.649L50.2286 31.52L50.1456 31.3924L50.0612 31.2656L49.9757 31.1398L49.8886 31.0146L49.8007 30.8907L49.7117 30.768L49.6211 30.6458L49.5297 30.525L49.4369 30.405L49.3434 30.2864L49.2482 30.1683L49.1521 30.0516L49.0549 29.9359L48.9567 29.8211L48.8575 29.7078L48.7568 29.5951L48.6555 29.4839L48.5529 29.3735L48.4497 29.2648L48.3448 29.1565L48.2395 29.0498L48.1326 28.9438L48.0252 28.8395L47.9169 28.7362L47.8075 28.6339L47.6969 28.5328L47.5856 28.4331L47.4734 28.3346L47.3599 28.2369L47.2464 28.1411L47.1313 28.0458L47.0156 27.9521L46.899 27.8597L46.7815 27.7682L46.6633 27.6782L46.5447 27.5898L46.4245 27.5021L46.3036 27.4156L46.1826 27.331L46.0601 27.2471L45.9377 27.1651L45.8141 27.0839L45.6898 27.0041L45.5646 26.9255L45.4393 26.8485L45.3127 26.7726L45.1859 26.6982L45.058 26.6248L44.9302 26.5532L44.8013 26.4828L44.6718 26.4135L44.5417 26.3456L44.4114 26.2794L44.2802 26.2141L44.1484 26.1503L44.0164 26.088L43.8841 26.0271L43.7503 25.9672L43.6172 25.9091L43.4831 25.8523L43.3484 25.7966L43.2135 25.7425L43.0784 25.6899L42.9427 25.6386L42.8062 25.5885L42.67 25.5401L42.533 25.4929L42.3956 25.4471L42.2585 25.4028L42.1206 25.3599L41.9828 25.3183L41.8438 25.2781L41.7054 25.2395L41.5666 25.2021L41.4274 25.1662L41.2882 25.1317L41.1482 25.0985L41.0086 25.0669L40.869 25.0367L40.7287 25.0078L40.5882 24.9802L40.4484 24.9544L40.3076 24.9297L40.1672 24.9065L40.0261 24.8846L39.8859 24.8643L39.7445 24.8451L39.6041 24.8278L39.4632 24.8115L39.3223 24.7968L39.1815 24.7834L39.0404 24.7714L38.9 24.7609L38.7588 24.7518L38.6182 24.744L38.4779 24.7377L38.3367 24.7326L38.1966 24.7291L38.0563 24.727L37.9162 24.7261L37.8205 24.7265L37.893 30.8554L37.9364 30.8555L38.0169 30.8567L38.0976 30.8586L38.1784 30.8612L38.2593 30.8649L38.3403 30.8693L38.4213 30.8745L38.5024 30.8807L38.5836 30.8877L38.6649 30.8955L38.7463 30.9041L38.8276 30.9135L38.9091 30.9239L38.9904 30.9351L39.0719 30.9471L39.1534 30.9601L39.2349 30.9739L39.3162 30.9885L39.3977 31.0041L39.4791 31.0203L39.5604 31.0377L39.6417 31.0557L39.7231 31.0747L39.8041 31.0945L39.8852 31.1151L39.9662 31.1367L40.0471 31.1591L40.1279 31.1823L40.2086 31.2065L40.2891 31.2315L40.3695 31.2575L40.4499 31.2843L40.5299 31.3119L40.6099 31.3403L40.6896 31.3696L40.7692 31.3998L40.8486 31.4308L40.9278 31.4628L41.0067 31.4956L41.0854 31.5292L41.164 31.5638L41.2422 31.5992L41.3203 31.6354L41.3981 31.6726L41.4755 31.7104L41.5528 31.7492L41.6296 31.789L41.7062 31.8294L41.7825 31.8708L41.8585 31.913L41.9341 31.956L42.0094 31.9998L42.0843 32.0445L42.1589 32.0901L42.2331 32.1365L42.307 32.1838L42.3804 32.2317L42.4534 32.2805L42.5261 32.3304L42.5984 32.3808L42.6701 32.4321L42.7416 32.4843L42.8125 32.5372L42.883 32.5909L42.9529 32.6455L43.0226 32.7008L43.0916 32.757L43.1601 32.8138L43.2283 32.8716L43.2958 32.93L43.3628 32.9893L43.4294 33.0494L43.4953 33.1102L43.5607 33.1718L43.6255 33.2341L43.6899 33.2972L43.7536 33.361L43.8167 33.4257L43.8794 33.4909L43.9412 33.557L44.0026 33.6239L44.0633 33.6914L44.1236 33.7596L44.183 33.8286L44.2417 33.8982L44.3 33.9685L44.3575 34.0396L44.4143 34.1114L44.4705 34.1838L44.526 34.257L44.5809 34.3307L44.6349 34.4052L44.6882 34.4802L44.7409 34.556L44.7929 34.6325L44.844 34.7096L44.8945 34.7872L44.9443 34.8656L44.9932 34.9445L45.0414 35.024L45.0888 35.1042L45.1354 35.1849L45.1813 35.2662L45.2263 35.3482L45.2706 35.4307L45.3141 35.5138L45.3567 35.5974L45.3986 35.6815L45.4395 35.7662L45.4796 35.8516L45.5188 35.9373L45.5573 36.0237L45.595 36.1106L45.6317 36.1979L45.6675 36.2857L45.7024 36.374L45.7365 36.4628L45.7698 36.5521L45.8021 36.6419L45.8335 36.7321L45.864 36.8227L45.8935 36.9138L45.9221 37.0054L45.9498 37.0972L45.9766 37.1896L46.0024 37.2825L46.0274 37.3755L46.0515 37.469L46.0744 37.563L46.0964 37.6573L46.1175 37.7518L46.1377 37.8469L46.1568 37.9422L46.1749 38.0377L46.1921 38.1338L46.2083 38.23L46.2235 38.3265L46.2377 38.4234L46.2508 38.5205L46.263 38.6179L46.2742 38.7156L46.2844 38.8135L46.2935 38.9115L46.3016 39.0099L46.3088 39.1086L46.3148 39.2073L46.3198 39.3063L46.3237 39.4055L46.3268 39.5049L46.3286 39.6044L46.3296 39.7041L46.3292 39.8037L46.3281 39.9037L46.3258 40.0039L46.3224 40.1041L46.318 40.2044L46.3125 40.3047L46.306 40.4052L46.2984 40.5057L46.2896 40.6063L46.2799 40.707L46.2692 40.8076L46.2572 40.9083L46.2442 41.0091L46.2302 41.1099L46.2151 41.2106L46.1989 41.3112L46.1815 41.4119L46.1632 41.5125L46.1437 41.6132L46.1232 41.7136L46.1015 41.8141L46.0787 41.9144L46.055 42.0148L46.03 42.1149L46.0041 42.2151L45.9771 42.3149L45.9489 42.4148L45.9197 42.5143L45.8893 42.6138L45.858 42.7132L45.8255 42.8122L45.7919 42.9112L45.7573 43.0099L45.7214 43.1083L45.6846 43.2067L45.6468 43.3045L45.6078 43.4024L45.5677 43.4998L45.5266 43.5971L45.4844 43.694L45.4411 43.7908L45.3968 43.887L45.3513 43.983L45.3047 44.0787L45.2573 44.174L45.2086 44.269L45.1589 44.3636L45.1081 44.4578L45.0563 44.5516L45.0036 44.6451L44.9497 44.7382L44.8947 44.8308L44.8388 44.9229L44.7817 45.0148L44.7237 45.106L44.6646 45.1968L44.6044 45.2872L44.5434 45.3769L44.4812 45.4664L44.418 45.5552L44.3537 45.6435L44.2886 45.7313L44.2224 45.8185L44.1552 45.9052L44.087 45.9914L44.0179 46.077L43.9477 46.1619L43.8766 46.2463L43.8046 46.33L43.7313 46.4132L43.6573 46.4956L43.5823 46.5776L43.5063 46.6588L43.4296 46.7393L43.3516 46.8193L43.2729 46.8985L43.1932 46.977L43.1127 47.0549L43.031 47.132L42.9486 47.2083L42.8653 47.2839L42.781 47.3589L42.696 47.4331L42.6099 47.5065L42.5231 47.5791L42.4352 47.651L42.3466 47.7221L42.2572 47.7922L42.1669 47.8617L42.0758 47.9304L41.9838 47.9982L41.8911 48.0651L41.7974 48.1312L41.7031 48.1966L41.6078 48.2609L41.5119 48.3245L41.4151 48.387L41.3175 48.4489L41.2192 48.5097L41.1201 48.5696L41.0203 48.6286L40.9198 48.6867L40.8185 48.7438L40.7164 48.8L40.6138 48.8554L40.5104 48.9096L40.4063 48.963L40.3015 49.0153L40.1961 49.0667L40.0899 49.117L39.9831 49.1664L39.8758 49.2148L39.7677 49.262L39.6591 49.3084L39.5498 49.3537L39.4399 49.3979L39.3294 49.4411L39.2184 49.4833L39.1067 49.5244L38.9945 49.5644L38.8818 49.6034L38.7685 49.6412L38.6547 49.6781L38.5404 49.7136L38.4257 49.7482L38.3102 49.7818L38.1945 49.8141L38.0783 49.8455L37.9615 49.8755L37.8443 49.9045L37.7266 49.9323L37.6086 49.9591L37.4901 49.9846L37.3713 50.0091L37.252 50.0323L37.1323 50.0544L37.0124 50.0753L36.8919 50.0951L36.7713 50.1136L36.6502 50.131L36.5289 50.1472L36.4072 50.1623L36.2852 50.1761L36.163 50.1886L36.0404 50.2002L35.9177 50.2102L35.7947 50.2193L35.6713 50.227L35.5479 50.2336L35.4242 50.239L35.3003 50.243L35.1761 50.2458L35.052 50.2474L34.9276 50.2479L34.8031 50.2471L34.6784 50.245L34.5536 50.2416L34.4287 50.237L34.3037 50.2312L34.1786 50.224L34.0534 50.2158L33.9283 50.2062L33.8031 50.1953L33.6778 50.1831L33.5526 50.1698L33.4273 50.155L33.3021 50.1391L33.1768 50.1219L33.0516 50.1036L32.9265 50.0838L32.8015 50.0628L32.6765 50.0406L32.5516 50.017L32.4268 49.9924L32.3021 49.9662L32.1776 49.939L32.0533 49.9102L31.9291 49.8804L31.8049 49.8494L31.681 49.8169L31.5575 49.7831L31.4339 49.7482L31.3109 49.712L31.1878 49.6745L31.0651 49.6357L30.9427 49.5958L30.8205 49.5545L30.6987 49.512L30.5771 49.4682L30.4559 49.4231L30.3351 49.3768L30.2145 49.3292L30.0943 49.2804L29.9745 49.2304L29.8552 49.1791L29.7362 49.1265L29.6175 49.0727L29.4995 49.0177L29.3817 48.9614L29.2645 48.9039L29.1477 48.8451L29.0315 48.7852L28.9158 48.724L28.8005 48.6617L28.6857 48.5981L28.5716 48.5333L28.4578 48.4672L28.3448 48.4L28.2323 48.3317L28.1205 48.262L28.0091 48.1912L27.8984 48.1193L27.7883 48.0461L27.6789 47.9718L27.5703 47.8963L27.4622 47.8196L27.3547 47.7419L27.2481 47.6628L27.1421 47.5828L27.0369 47.5016L26.9323 47.4192L26.8286 47.3357L26.7255 47.2511L26.6232 47.1654L26.5218 47.0786L26.4211 46.9906L26.3213 46.9016L26.2223 46.8115L26.124 46.7203L26.0266 46.6281L25.9302 46.5347L25.8344 46.4404L25.7398 46.345L25.646 46.2485L25.5529 46.151L25.4609 46.0526L25.3698 45.9529L25.2797 45.8524L25.1904 45.751L25.1023 45.6484L25.0149 45.545L24.9286 45.4404L24.8434 45.3349L24.7591 45.2286L24.6758 45.1213L24.5935 45.013L24.5123 44.9037L24.4323 44.7937L24.3533 44.6826L24.2752 44.5706L24.1982 44.4578L24.1224 44.3442L24.0477 44.2295L23.9742 44.1141L23.9016 43.9979L23.8304 43.8808L23.7601 43.7628L23.6911 43.6442L23.6232 43.5245L23.5565 43.4042L23.4909 43.2831L23.4266 43.1612L23.3635 43.0385L23.3015 42.9151L23.2408 42.7911L23.1813 42.6661L23.1231 42.5406L23.0661 42.4143L23.0104 42.2873L22.9559 42.1596L22.9026 42.0313L22.8507 41.9023L22.8 41.7727L22.7507 41.6424L22.7028 41.5115L22.656 41.38L22.6106 41.2481L22.5664 41.1154L22.5237 40.9821L22.4823 40.8484L22.4422 40.7141L22.4034 40.5792L22.3661 40.4438L22.3302 40.308L22.2955 40.1716L22.2624 40.0347L22.2305 39.8976L22.2 39.7597L22.171 39.6216L22.1434 39.483L22.1171 39.344L22.0922 39.2046L22.0688 39.0648L22.0469 38.9247L22.0263 38.7841L22.0072 38.6433L21.9896 38.5021L21.9734 38.3607L21.9586 38.2188L21.9453 38.0768L21.9335 37.9344L21.9231 37.7919L21.9141 37.649L21.9067 37.506L21.9007 37.3628L21.8961 37.2193L21.8932 37.0757L21.8917 36.932L21.8916 36.788L21.893 36.6438L21.8961 36.4997L21.9005 36.3554L21.9065 36.2109L21.914 36.0664L21.9229 35.9219L21.9333 35.7773L21.9453 35.6326L21.9588 35.488L21.9737 35.3433L21.9903 35.1987L22.0083 35.0541L22.0278 34.9096L22.0489 34.7651L22.0714 34.6206L22.0956 34.4763L22.1211 34.332L22.1482 34.1878L22.177 34.0438L22.2072 33.9L22.2388 33.7563L22.2719 33.6128L22.3067 33.4696L22.3429 33.3265L22.3807 33.1836L22.42 33.0411L22.4607 32.8987L22.5029 32.7565L22.5468 32.6148L22.5921 32.4732L22.6388 32.332L22.6872 32.1912L22.737 32.0507L22.7883 31.9106L22.8411 31.7708L22.8955 31.6315L22.9513 31.4925L23.0086 31.3539L23.0674 31.2159L23.1276 31.0783L23.1895 30.9411L23.2526 30.8044L23.3174 30.6682L23.3835 30.5326L23.4511 30.3974L23.5201 30.2628L23.5908 30.1289L23.6627 29.9955L23.7362 29.8627L23.8111 29.7304L23.8873 29.5987L23.9651 29.4679L24.0443 29.3375L24.1248 29.2078L24.207 29.0789L24.2904 28.9505L24.3752 28.8229L24.4614 28.6961L24.549 28.57L24.638 28.4446L24.7284 28.3201L24.8201 28.1963L24.9132 28.0732L25.0076 27.9511L25.1034 27.8297L25.2007 27.7093L25.2992 27.5895L25.3989 27.4708L25.5 27.3528L25.6024 27.2357L25.7062 27.1196L25.8112 27.0044L25.9175 26.8903L26.0252 26.777L26.1341 26.6646L26.2442 26.5532L26.3555 26.4429L26.4682 26.3334L26.582 26.2252L26.6971 26.1179L26.8133 26.0115L26.9307 25.9063L27.0494 25.8021L27.1693 25.6992L27.2903 25.5971L27.4125 25.4963L27.5357 25.3966L27.6602 25.2979L27.7857 25.2005L27.9125 25.1042L28.0403 25.0091L28.1692 24.9151L28.2992 24.8224L28.4302 24.7308L28.5623 24.6404L28.6956 24.5513L28.8297 24.4635L28.9649 24.377L29.1013 24.2916L29.2385 24.2075L29.3768 24.1247L29.5159 24.0432L29.6562 23.963L29.7973 23.8841L29.9393 23.8065L30.0823 23.7304L30.2261 23.6555L30.371 23.582L30.5166 23.5099L30.6632 23.4391L30.8106 23.3698L30.9588 23.3018L31.1078 23.2352L31.2576 23.1701L31.4085 23.1063L31.5599 23.044L31.712 22.9833L31.8651 22.9239L32.0188 22.8659L32.1732 22.8094L32.3284 22.7545L32.4844 22.701L32.6409 22.649L32.7982 22.5985L32.956 22.5495L33.1146 22.5021L33.2737 22.4562L33.4335 22.4119L33.5938 22.369L33.7547 22.3276L33.9162 22.2878L34.0783 22.2497L34.2409 22.2132L34.4039 22.1781L34.5675 22.1446L34.7315 22.1128L34.8138 22.0976ZM36.8299 33.8838L34.9588 34.3308L34.8489 25.0622L34.7607 25.082L34.6279 25.1133L34.4953 25.1459L34.3636 25.1797L34.2322 25.2148L34.1015 25.2511L33.9708 25.289L33.8414 25.3276L33.7117 25.3679L33.5836 25.4089L33.4552 25.4516L33.3276 25.4955L33.2007 25.5404L33.0742 25.5865L32.9489 25.6338L32.8237 25.6825L32.6992 25.7321L32.5755 25.783L32.452 25.8352L32.33 25.8882L32.2081 25.9427L32.0874 25.9981L31.9667 26.0549L31.8473 26.1125L31.7281 26.1714L31.6102 26.2313L31.4929 26.2924L31.3763 26.3545L31.2606 26.4177L31.1455 26.482L31.0312 26.5474L30.9182 26.6136L30.805 26.6813L30.6934 26.7497L30.5826 26.8192L30.4726 26.8896L30.3632 26.9612L30.2549 27.0338L30.1474 27.1073L30.0408 27.1817L29.9352 27.257L29.8302 27.3334L29.7263 27.4109L29.6234 27.4891L29.5213 27.5683L29.4203 27.6482L29.3203 27.7292L29.221 27.8112L29.1226 27.8942L29.0255 27.9776L28.9292 28.0622L28.8339 28.1474L28.7396 28.2336L28.6463 28.3208L28.5541 28.4086L28.4628 28.4971L28.3724 28.5867L28.2833 28.6768L28.1951 28.7679L28.1081 28.8594L28.0218 28.9523L27.9369 29.0453L27.8529 29.1393L27.77 29.2341L27.6883 29.3292L27.6075 29.4255L27.5281 29.5219L27.4494 29.6196L27.3721 29.7175L27.2956 29.8164L27.2205 29.9159L27.1464 30.0157L27.0734 30.1162L27.0016 30.2174L26.9309 30.3193L26.8612 30.4216L26.7929 30.5247L26.7257 30.6279L26.6596 30.7318L26.5945 30.8365L26.5309 30.9414L26.468 31.0472L26.4067 31.1529L26.3463 31.2596L26.287 31.3666L26.2292 31.4739L26.1724 31.5817L26.1169 31.6899L26.0623 31.7989L26.0093 31.9076L25.9572 32.0174L25.9063 32.1271L25.8568 32.2373L25.8083 32.3479L25.7611 32.4589L25.7151 32.57L25.6703 32.6817L25.6268 32.7935L25.5843 32.9057L25.5432 33.0179L25.5033 33.1307L25.4645 33.2437L25.427 33.3568L25.3906 33.4701L25.3555 33.5839L25.3216 33.6977L25.2891 33.8115L25.2576 33.9258L25.2273 34.0403L25.1984 34.1547L25.1706 34.2693L25.144 34.3841L25.1187 34.499L25.0947 34.6141L25.0718 34.7291L25.05 34.8442L25.0296 34.9596L25.0104 35.0747L24.9924 35.1899L24.9755 35.3055L24.9599 35.4206L24.9456 35.5362L24.9325 35.6513L24.9205 35.7667L24.9098 35.8823L24.9002 35.9974L24.8919 36.1127L24.8848 36.2279L24.8787 36.3429L24.874 36.4578L24.8705 36.5726L24.8682 36.6875L24.8669 36.8021L24.8671 36.9166L24.8682 37.0308L24.8706 37.1451L24.8742 37.2591L24.8789 37.3729L24.8848 37.4865L24.8919 37.5998L24.9002 37.713L24.9096 37.826L24.9201 37.9386L24.9318 38.0513L24.9447 38.1632L24.9586 38.2753L24.9737 38.3867L24.9901 38.4982L25.0075 38.6091L25.026 38.7198L25.0456 38.8304L25.0664 38.9403L25.0883 39.05L25.1112 39.1591L25.1354 39.2682L25.1606 39.3766L25.1869 39.4849L25.2141 39.5924L25.2427 39.7L25.2721 39.8067L25.3026 39.9133L25.3343 40.0192L25.3669 40.1248L25.4007 40.2299L25.4354 40.3343L25.4713 40.4386L25.5081 40.5422L25.546 40.6451L25.5848 40.7479L25.6247 40.85L25.6656 40.9515L25.7075 41.0524L25.7502 41.1528L25.7942 41.2528L25.839 41.3521L25.8848 41.4508L25.9315 41.5489L25.9791 41.6463L26.0279 41.7435L26.0773 41.8396L26.1278 41.9352L26.1792 42.0304L26.2317 42.1247L26.2849 42.2185L26.339 42.3117L26.394 42.4039L26.45 42.4958L26.5067 42.5869L26.5643 42.6771L26.6229 42.7669L26.6822 42.8558L26.7424 42.9443L26.8033 43.0315L26.8651 43.1185L26.9278 43.2045L26.9911 43.2898L27.0555 43.3745L27.1205 43.4583L27.1862 43.5412L27.2528 43.6235L27.3201 43.7052L27.388 43.7857L27.457 43.8657L27.5265 43.945L27.5966 44.0232L27.6679 44.1008L27.7393 44.1773L27.8117 44.2534L27.8848 44.3284L27.9583 44.4026L28.0328 44.476L28.1078 44.5485L28.1835 44.6203L28.2598 44.6911L28.3367 44.761L28.4143 44.8302L28.4924 44.8984L28.5711 44.9657L28.6503 45.0323L28.7302 45.0979L28.8107 45.1627L28.8919 45.2265L28.9732 45.2893L29.0554 45.3513L29.138 45.4125L29.2211 45.4727L29.3047 45.532L29.3888 45.5904L29.4734 45.6479L29.5585 45.7044L29.6438 45.7599L29.7297 45.8146L29.8164 45.8685L29.9031 45.9211L29.9903 45.9731L30.0781 46.024L30.1659 46.0739L30.2542 46.1229L30.3434 46.1711L30.4325 46.2182L30.5219 46.2643L30.6117 46.3094L30.7021 46.3537L30.7924 46.3969L30.8835 46.4393L30.9745 46.4807L31.0658 46.5209L31.1576 46.5604L31.2497 46.5989L31.3417 46.6364L31.4343 46.6729L31.527 46.7083L31.6201 46.7429L31.713 46.7765L31.8067 46.8091L31.9 46.8406L31.9937 46.8713L32.0877 46.901L32.1818 46.9297L32.276 46.9573L32.3703 46.9841L32.4649 47.0097L32.5596 47.0346L32.6542 47.0583L32.749 47.0812L32.8438 47.1029L32.9388 47.1237L33.0339 47.1437L33.1291 47.1625L33.2242 47.1805L33.3193 47.1974L33.4146 47.2135L33.5099 47.2284L33.6052 47.2425L33.7002 47.2555L33.7955 47.2675L33.8906 47.2787L33.9859 47.289L34.081 47.2981L34.1761 47.3063L34.2711 47.3136L34.3659 47.32L34.4609 47.3253L34.5555 47.3297L34.65 47.3333L34.7448 47.3357L34.839 47.3373L34.9331 47.338L35.0273 47.3377L35.1211 47.3365L35.2151 47.3343L35.3088 47.3312L35.402 47.3273L35.4951 47.3222L35.5885 47.3164L35.681 47.3096L35.7737 47.302L35.8659 47.2933L35.9581 47.2839L36.05 47.2734L36.1414 47.2622L36.233 47.25L36.3239 47.2369L36.4145 47.2229L36.5052 47.2081L36.5953 47.1924L36.6851 47.1758L36.7747 47.1583L36.864 47.1399L36.9526 47.1208L37.0409 47.1008L37.1292 47.0799L37.2171 47.0581L37.3044 47.0357L37.3914 47.0123L37.4779 46.9882L37.5645 46.963L37.6502 46.9372L37.7352 46.9106L37.8206 46.883L37.905 46.8547L37.9891 46.8258L38.0727 46.7959L38.1559 46.7653L38.2388 46.7338L38.3211 46.7016L38.4028 46.6687L38.4841 46.6351L38.5649 46.6005L38.6455 46.5653L38.725 46.5294L38.8046 46.4927L38.8833 46.4554L38.9614 46.4172L39.0393 46.3784L39.1162 46.339L39.193 46.2987L39.2692 46.2576L39.3447 46.2161L39.4195 46.1739L39.494 46.1308L39.5679 46.0872L39.6409 46.0429L39.7135 45.9979L39.7856 45.9523L39.857 45.9062L39.9279 45.8593L39.9981 45.8119L40.0677 45.7636L40.1367 45.7149L40.2049 45.6657L40.2726 45.6157L40.3396 45.5653L40.406 45.5141L40.4718 45.4625L40.537 45.4102L40.6013 45.3576L40.6651 45.3044L40.7281 45.2505L40.7904 45.1961L40.8523 45.1412L40.9133 45.0857L40.9737 45.0299L41.0331 44.9735L41.0922 44.9166L41.1505 44.8591L41.2081 44.8013L41.2649 44.743L41.321 44.6841L41.3763 44.625L41.4312 44.5651L41.4849 44.5052L41.5383 44.4445L41.5908 44.3834L41.6424 44.3222L41.6937 44.2602L41.7437 44.1982L41.7934 44.1356L41.8422 44.0727L41.8901 44.0094L41.9375 43.9456L41.9839 43.8818L42.0297 43.8172L42.0748 43.7524L42.119 43.6877L42.1625 43.6221L42.2054 43.5565L42.2471 43.4906L42.2883 43.4244L42.3287 43.3578L42.3684 43.2909L42.4073 43.2239L42.4453 43.1565L42.4826 43.089L42.5192 43.0209L42.5549 42.9531L42.5898 42.8847L42.624 42.8162L42.6575 42.7476L42.6901 42.6784L42.7219 42.6094L42.7529 42.5401L42.7831 42.4708L42.8127 42.401L42.8412 42.3313L42.8693 42.261L42.8963 42.1914L42.9227 42.1206L42.9481 42.051L42.9729 41.9802L42.9969 41.9094L43.02 41.839L43.0424 41.7682L43.064 41.6976L43.0849 41.6261L43.1047 41.5557L43.1242 41.4841L43.1425 41.4136L43.1602 41.3422L43.1771 41.2708L43.1932 41.1998L43.2085 41.1291L43.2231 41.0573L43.2369 40.9864L43.2498 40.9148L43.262 40.844L43.2736 40.7729L43.2843 40.7016L43.2942 40.6304L43.3033 40.5593L43.3117 40.4885L43.3193 40.4179L43.3261 40.3466L43.3323 40.276L43.3377 40.2052L43.3422 40.1346L43.3461 40.0641L43.3492 39.9938L43.3515 39.9239L43.3531 39.8534L43.3541 39.7831L43.3542 39.7135L43.3536 39.6438L43.3523 39.5744L43.3502 39.505L43.3474 39.4354L43.3438 39.3671L43.3396 39.2972L43.3348 39.2292L43.3291 39.1609L43.3227 39.092L43.3156 39.024L43.308 38.9567L43.2994 38.8883L43.2903 38.8214L43.2804 38.7541L43.27 38.6877L43.2586 38.6206L43.2468 38.5541L43.2343 38.4882L43.2211 38.4224L43.2072 38.3565L43.1925 38.2914L43.1774 38.2263L43.1615 38.1617L43.1451 38.0976L43.1278 38.033L43.1102 37.9696L43.0917 37.9057L43.0727 37.8429L43.0531 37.78L43.0328 37.7177L43.0119 37.6555L42.9903 37.5935L42.9684 37.5325L42.9456 37.4716L42.9223 37.4106L42.8984 37.3505L42.8739 37.2901L42.849 37.2312L42.8232 37.1716L42.7973 37.113L42.7705 37.0549L42.7432 36.9968L42.7154 36.9393L42.687 36.8821L42.6581 36.8253L42.6287 36.7692L42.5987 36.7133L42.5684 36.658L42.5373 36.6029L42.5057 36.5484L42.4739 36.4943L42.4414 36.4408L42.4083 36.3873L42.3748 36.3349L42.3409 36.2826L42.3065 36.2308L42.2716 36.1794L42.2364 36.1287L42.2005 36.0783L42.1643 36.0284L42.1276 35.9791L42.0904 35.9302L42.0531 35.8818L42.0149 35.8338L41.9766 35.7865L41.9378 35.7396L41.8987 35.6932L41.8591 35.6472L41.8193 35.602L41.7789 35.5571L41.7382 35.5128L41.6971 35.4688L41.6557 35.4257L41.6138 35.383L41.5716 35.3406L41.5292 35.299L41.4864 35.258L41.4434 35.2174L41.3995 35.1771L41.356 35.1377L41.3119 35.0985L41.2675 35.0602L41.2227 35.0222L41.1778 34.9851L41.1325 34.9482L41.087 34.912L41.0412 34.8763L40.9951 34.8411L40.9489 34.8067L40.9023 34.7726L40.8554 34.7391L40.8085 34.7063L40.7612 34.6739L40.7138 34.6422L40.6661 34.611L40.618 34.5804L40.5701 34.5503L40.5216 34.5208L40.4732 34.4919L40.4247 34.4636L40.3758 34.4359L40.3266 34.4086L40.2776 34.382L40.2284 34.3558L40.1789 34.3304L40.1296 34.3055L40.0796 34.281L40.0299 34.2573L39.9799 34.2343L39.9299 34.2115L39.8797 34.1895L39.8292 34.1679L39.7792 34.1471L39.7286 34.1268L39.6779 34.107L39.6274 34.0878L39.5768 34.0692L39.5261 34.0511L39.4753 34.0336L39.4245 34.0166L39.3739 34.0003L39.3229 33.9844L39.2719 33.9692L39.2213 33.9545L39.17 33.9404L39.1193 33.927L39.0684 33.914L39.0174 33.9015L38.9664 33.8896L38.9156 33.8783L38.8646 33.8675L38.8138 33.8573L38.7632 33.8476L38.7125 33.8385L38.6615 33.8299L38.6112 33.8219L38.5602 33.8145L38.5101 33.8075L38.4594 33.801L38.4091 33.7951L38.3591 33.7898L38.3088 33.7851L38.2588 33.7807L38.2088 33.777L38.1589 33.7737L38.1091 33.7709L38.0594 33.7688L38.0102 33.7672L37.9607 33.7659L37.9115 33.7653L37.8624 33.7651L37.8135 33.7656L37.7646 33.7664L37.7161 33.7677L37.6675 33.7696L37.6195 33.7719L37.5711 33.7748L37.5234 33.7781L37.4757 33.7818L37.4281 33.7862L37.3809 33.7909L37.3335 33.7961L37.2867 33.8018L37.2399 33.808L37.1935 33.8146L37.1471 33.8218L37.1011 33.8292L37.0552 33.8372L37.0099 33.8456L36.9643 33.8545L36.9193 33.8638L36.8744 33.8735L36.8299 33.8838Z" fill="white"/>
</g>
</svg>
