<svg width="250" height="76" viewBox="0 0 250 76" fill="none" xmlns="http://www.w3.org/2000/svg">
<g id="lorem4">
<path id="Vector" d="M43.9962 21.693H47.7841V48.0566H59.1477V51.8445H43.9962V21.693ZM70.947 21.693C73.1945 21.693 75.3915 22.3595 77.2602 23.6081C79.129 24.8568 80.5856 26.6314 81.4456 28.708C82.3057 30.7845 82.5307 33.0693 82.0922 35.2735C81.6538 37.4778 80.5716 39.5026 78.9822 41.0919C77.393 42.6812 75.3682 43.7634 73.1638 44.2019C70.9597 44.6403 68.6748 44.4153 66.5983 43.5553C64.5218 42.6951 62.7472 41.2386 61.4985 39.3699C60.2498 37.5011 59.5833 35.3042 59.5833 33.0566C59.5833 31.5644 59.8773 30.0865 60.4483 28.708C61.0193 27.3292 61.8564 26.0765 62.9117 25.0214C63.9669 23.9661 65.2195 23.129 66.5983 22.558C67.9769 21.9869 69.4547 21.693 70.947 21.693ZM70.947 40.6324C72.4453 40.6324 73.91 40.1881 75.1559 39.3557C76.4017 38.5231 77.3727 37.34 77.946 35.9557C78.5195 34.5714 78.6695 33.0483 78.3771 31.5786C78.0849 30.1091 77.3633 28.7593 76.3038 27.6998C75.2443 26.6403 73.8945 25.9187 72.425 25.6265C70.9553 25.3341 69.4322 25.4841 68.0479 26.0576C66.6636 26.6309 65.4803 27.6019 64.6479 28.8477C63.8155 30.0936 63.3712 31.5583 63.3712 33.0566C63.3813 35.0593 64.1837 36.9765 65.6034 38.389C67.0231 39.8015 68.9443 40.5945 70.947 40.5945V40.6324ZM63.3712 48.0945H78.5227V51.8824H63.3712V48.0945ZM111.856 51.8824H108.068V49.174C105.625 50.8839 102.717 51.8028 99.7349 51.8066C97.1922 51.8237 94.6862 51.2006 92.4477 49.9947C90.2091 48.7886 88.31 47.0388 86.9256 44.9062C85.5409 42.7737 84.7152 40.3269 84.5246 37.7913C84.3339 35.2559 84.7845 32.7131 85.8347 30.3975C86.8849 28.0818 88.5009 26.0676 90.5339 24.5407C92.567 23.0136 94.9517 22.0227 97.4682 21.6595C99.9849 21.296 102.552 21.572 104.934 22.4615C107.316 23.3511 109.436 24.8258 111.098 26.7498L108.314 29.2309C107.05 27.8172 105.452 26.7426 103.666 26.1049C101.88 25.467 99.9627 25.2864 98.089 25.5794C96.2152 25.8723 94.4447 26.6297 92.9384 27.7822C91.4324 28.9348 90.2386 30.4458 89.4663 32.178C88.6938 33.91 88.3671 35.8078 88.5159 37.6985C88.6648 39.5892 89.2843 41.4125 90.3184 43.0023C91.3525 44.592 92.7678 45.8979 94.4358 46.8006C96.1036 47.7032 97.971 48.1741 99.8674 48.1703C101.441 48.1735 102.997 47.8367 104.429 47.183C105.861 46.5292 107.134 45.5739 108.163 44.3824H97.9356V40.5945H111.894L111.856 51.8824ZM125.795 21.7687C128.043 21.7687 130.24 22.4352 132.109 23.6839C133.977 24.9326 135.434 26.7072 136.294 28.7837C137.154 30.8602 137.379 33.1451 136.941 35.3492C136.502 37.5536 135.42 39.5784 133.831 41.1676C132.241 42.757 130.217 43.8392 128.012 44.2776C125.808 44.7161 123.523 44.4911 121.447 43.6311C119.37 42.7708 117.596 41.3144 116.347 39.4456C115.098 37.5769 114.432 35.3799 114.432 33.1324C114.422 31.6305 114.71 30.1417 115.279 28.7517C115.848 27.3617 116.686 26.0983 117.747 25.0347C118.807 23.9708 120.067 23.1278 121.455 22.5542C122.844 21.9807 124.331 21.6879 125.833 21.693L125.795 21.7687ZM125.795 40.7081C127.294 40.7081 128.759 40.2638 130.004 39.4314C131.25 38.5989 132.221 37.4157 132.795 36.0314C133.368 34.6472 133.518 33.124 133.226 31.6544C132.933 30.1848 132.212 28.835 131.152 27.7756C130.093 26.7161 128.743 25.9945 127.273 25.7023C125.804 25.4098 124.281 25.5598 122.896 26.1333C121.512 26.7066 120.329 27.6776 119.496 28.9235C118.664 30.1693 118.22 31.6341 118.22 33.1324C118.25 35.1284 119.066 37.032 120.492 38.4294C121.917 39.8265 123.837 40.6047 125.833 40.5945L125.795 40.7081ZM118.22 48.1703H133.371V51.9581H118.22V48.1703ZM141.193 21.693H144.981V51.8066H141.193V21.693ZM150.227 21.693H154.015C154.21 21.6723 154.407 21.6723 154.602 21.693C156.189 21.5208 157.794 21.6848 159.312 22.174C160.831 22.6634 162.23 23.467 163.417 24.5328C164.605 25.5985 165.555 26.9025 166.205 28.3597C166.856 29.8169 167.191 31.3947 167.191 32.9903C167.191 34.586 166.856 36.1638 166.205 37.621C165.555 39.0782 164.605 40.3822 163.417 41.4479C162.23 42.5136 160.831 43.3172 159.312 43.8066C157.794 44.2958 156.189 44.4598 154.602 44.2877H154.015V51.8634H150.227V21.693ZM154.015 25.4809V40.4619H154.602C155.672 40.6044 156.76 40.5167 157.793 40.2044C158.827 39.8922 159.781 39.3629 160.593 38.6519C161.405 37.9409 162.056 37.0646 162.502 36.0816C162.947 35.0987 163.178 34.0318 163.178 32.9525C163.178 31.8731 162.947 30.8062 162.502 29.8233C162.056 28.8403 161.405 27.964 160.593 27.253C159.781 26.5419 158.827 26.0127 157.793 25.7004C156.76 25.3883 155.672 25.3006 154.602 25.443C154.396 25.4644 154.193 25.5089 153.996 25.5756L154.015 25.4809ZM181.307 23.871L178.504 26.0869C178.02 25.5816 177.402 25.2248 176.723 25.0585C176.044 24.8922 175.331 24.9233 174.669 25.1481C174.006 25.3727 173.422 25.7818 172.984 26.3273C172.546 26.8727 172.273 27.5318 172.197 28.2271V28.5301C172.197 30.1968 173.352 31.3142 175.606 31.4657C184.28 31.996 188.258 36.068 188.258 41.4468V41.7877C188.034 43.9165 187.203 45.9362 185.864 47.6066C184.526 49.2771 182.735 50.5276 180.706 51.21C178.677 51.8922 176.495 51.9775 174.419 51.4553C172.343 50.9333 170.461 49.8259 168.996 48.265L171.894 46.0301C172.568 46.753 173.392 47.3205 174.308 47.6934C175.223 48.0661 176.209 48.2354 177.197 48.1892C179.021 48.2854 180.812 47.6731 182.195 46.4801C183.579 45.2873 184.448 43.6061 184.621 41.7877V41.5225C184.621 36.4657 179.659 35.5377 175.36 35.121C171.383 34.7422 168.523 32.2612 168.523 28.6816V28.5301C168.663 26.6665 169.513 24.9278 170.898 23.6733C172.284 22.4186 174.098 21.7436 175.966 21.7877C176.956 21.7585 177.941 21.9371 178.858 22.3123C179.775 22.6875 180.602 23.2508 181.288 23.9657L181.307 23.871ZM203.087 47.9619C207.803 47.9619 211.534 42.8672 211.534 36.5983V21.4468H215.322V36.5983C215.322 44.9316 209.867 51.6551 203.163 51.6551C196.458 51.6551 191.004 44.9316 191.004 36.5983V21.4468H194.792V36.5983C194.64 42.9619 198.371 48.0566 203.068 48.0566L203.087 47.9619ZM244.394 51.7498H240.606V32.9998L231.875 44.3634L223.144 32.9998V51.8066H219.356V21.693L231.856 38.1513L244.356 21.693L244.394 51.7498Z" fill="white"/>
<path id="Vector_2" d="M25.8144 17.1666C25.8144 14.434 24.729 11.8134 22.7968 9.88121C20.8646 7.94902 18.2439 6.86353 15.5113 6.86353C12.7788 6.86353 10.1582 7.94902 8.226 9.88121C6.29381 11.8134 5.20831 14.434 5.20831 17.1666V48.3219L13.6932 54.4014V69.212H17.3295V54.4014L25.8144 48.3219V17.1666ZM22.178 34.5908L17.3295 39.4393V34.8938L22.178 30.0453V34.5908ZM8.92043 30.0453L13.7689 34.8938V39.4393L8.92043 34.5908V30.0453ZM22.178 24.8938L15.5113 31.5605L8.84468 24.7423V20.1969L15.5113 26.8635L22.178 20.1969V24.8938ZM15.5113 10.4999C16.9775 10.5064 18.4012 10.9933 19.5642 11.8861C20.7273 12.7789 21.5655 14.0284 21.9507 15.4431L15.5113 21.8635L9.07195 15.4431C9.44305 14.0143 10.2753 12.7479 11.4396 11.8404C12.6039 10.933 14.0352 10.4351 15.5113 10.4241V10.4999ZM8.84468 46.4847V39.6666L13.6932 44.515V49.9317L8.84468 46.4847ZM17.3295 49.9506V44.515L22.178 39.6666V46.4658L17.3295 49.9506Z" fill="white"/>
</g>
</svg>
